<?xml version="1.0" standalone="no"?>
<!DOCTYPE svg PUBLIC "-//W3C//DTD SVG 1.1//EN" "http://www.w3.org/Graphics/SVG/1.1/DTD/svg11.dtd">
<svg xmlns="http://www.w3.org/2000/svg">
<metadata>Generated by Fontastic.me</metadata>
<defs>
<font id="sacomfont" horiz-adv-x="512">
<font-face font-family="sacomfont" units-per-em="512" ascent="480" descent="-32"/>
<missing-glyph horiz-adv-x="512" />

<glyph glyph-name="shopping-cart" unicode="&#99;" d="M201 73c0-10-3-18-11-26-7-7-16-10-25-10-10 0-19 3-26 10-7 8-11 16-11 26 0 10 4 19 11 26 7 7 16 11 26 11 9 0 18-4 25-11 8-7 11-16 11-26z m256 0c0-10-3-18-11-26-7-7-16-10-25-10-10 0-19 3-26 10-7 8-11 16-11 26 0 10 4 19 11 26 7 7 16 11 26 11 9 0 18-4 25-11 8-7 11-16 11-26z m37 311l0-146c0-5-2-9-5-12-3-4-7-6-12-7l-298-34c3-12 4-19 4-20 0-3-2-10-7-19l263 0c5 0 9-2 13-5 3-4 5-8 5-13 0-5-2-9-5-13-4-3-8-5-13-5l-293 0c-5 0-9 2-13 5-3 4-5 8-5 13 0 2 1 5 2 9 2 4 3 7 5 10 1 3 3 7 6 12 3 4 4 7 4 8l-50 235-58 0c-5 0-10 2-13 6-4 3-6 8-6 13 0 5 2 9 6 12 3 4 8 6 13 6l73 0c3 0 5-1 8-2 2-1 4-3 5-4 2-2 3-4 4-7 1-3 2-6 2-8 1-2 1-5 2-8 1-4 1-6 1-8l343 0c5 0 10-2 13-5 4-4 6-8 6-13z"/>
<glyph glyph-name="paypal" unicode="&#107;" d="M323 486l-202 0-89-410 118 0 29 136 85 0c81 0 148 50 166 135 21 96-48 139-107 139z m-88-195l-39 0 25 112 58 0c20 0 35-12 40-29-2 0-5 1-7 1l-58 0z m84 56c-7-31-36-55-65-56l14 61 52 0c0-2 0-3-1-5z m144-28c6 31 3 57-6 78 19-23 29-56 20-101-19-85-86-134-167-134l-85 0-29-136-118 0 5 22 99 0 29 136 85 0c81 0 148 50 167 135z"/>
<glyph glyph-name="youtube" unicode="&#109;" d="M389 149l-25 0 0 15c0 7 5 12 12 12l1 0c7 0 12-5 12-12z m-95 32c-6 0-12-4-12-10l0-71c0-5 6-10 12-10 6 0 12 5 12 10l0 71c0 6-6 10-12 10z m154 40l0-136c0-33-28-59-63-59l-258 0c-35 0-63 26-63 59l0 136c0 32 28 59 63 59l258 0c35 0 63-27 63-59z m-304-151l0 143 32 0 0 21-85 1 0-21 26 0 0-144z m96 122l-27 0 0-76c0-12 1-17 0-19-2-6-12-12-15-1-1 2 0 8 0 19l-1 77-26 0 0-76c0-11 0-20 0-24 1-7 0-15 7-20 12-8 35 2 41 14l0-16 21 0z m85-88l0 64c0 24-18 39-42 19l0 47-27 0 0-163 22 0 2 11c28-26 46-8 45 22z m84 9l-20 0c0-1 0-2 0-3l0-11c0-6-5-11-11-11l-4 0c-6 0-11 5-11 11l0 29 46 0 0 17c0 13 0 26-1 33-4 23-36 26-52 15-5-4-9-9-11-15-2-7-3-16-3-27l0-38c0-63 76-54 67 0z m-103 206c2-4 4-6 7-8 3-2 6-3 11-3 4 0 7 1 10 3 3 2 5 5 7 9l0-10 30 0 0 127-24 0 0-99c0-5-4-10-10-10-5 0-9 5-9 10l0 99-25 0 0-86c0-11 0-18 1-22 0-3 1-7 2-10z m-90 71c0 12 1 22 3 29 2 7 6 12 11 16 5 4 12 6 20 6 7 0 13-1 18-4 5-2 9-6 11-10 3-4 5-9 6-13 1-5 1-12 1-21l0-32c0-12 0-20-1-26-1-5-3-10-6-15-3-5-7-8-11-11-5-2-10-3-16-3-7 0-13 1-18 3-4 2-8 5-11 9-2 4-4 8-5 14-1 5-2 14-2 25z m23-50c0-7 6-13 12-13 7 0 12 6 12 13l0 67c0 8-5 13-12 13-6 0-12-5-12-13z m-82-34l28 0 0 97 33 83-30 0-18-62-18 62-30 0 35-83z"/>
<glyph glyph-name="facebook-places" unicode="&#110;" d="M407 372c-1 6-5 12-7 18-30 71-94 96-146 96-70 0-146-46-157-143l0-19c0-1 1-8 1-12 6-46 42-95 69-141 29-49 59-97 89-145 19 31 37 63 55 94 5 9 11 18 15 26 4 6 10 12 13 17 29 53 76 107 76 160l0 22c0 5-7 25-8 27z m-152-99c-20 0-43 10-54 38-1 5-1 14-1 15l0 13c0 36 30 52 57 52 33 0 58-26 58-59 0-33-27-59-60-59z"/>
<glyph glyph-name="location" unicode="&#111;" d="M256 461c36 0 66-13 91-38 25-24 37-55 37-90 0-36-11-78-32-125-21-46-42-84-64-114 0 0-32-43-32-43-3 4-8 10-14 18-6 8-16 23-31 46-14 22-27 44-38 66-12 22-22 47-31 76-9 28-14 53-14 76 0 35 12 66 37 90 25 25 56 38 91 38m0-199c19 0 36 7 49 21 14 13 21 30 21 49 0 19-7 35-21 48-13 14-30 20-49 20-19 0-35-6-49-20-13-13-20-29-20-48 0-19 7-36 20-49 14-14 30-21 49-21"/>
<glyph glyph-name="play" unicode="&#112;" d="M377 269c5-3 7-8 7-13 0-5-2-9-7-12 0 0-219-136-219-136-8-6-15-7-21-4-6 4-9 11-9 21 0 0 0 263 0 263 0 10 3 17 9 21 6 3 13 2 21-3 0 0 219-137 219-137"/>
<glyph glyph-name="plus-circled" unicode="&#114;" d="M256 471c59 0 110-21 152-63 42-42 63-93 63-152 0-59-21-110-63-152-42-42-93-63-152-63-59 0-110 21-152 63-42 42-63 93-63 152 0 59 21 110 63 152 42 42 93 63 152 63m27-241c0 0 102 0 102 0 0 0 0 53 0 53 0 0-102 0-102 0 0 0 0 103 0 103 0 0-53 0-53 0 0 0 0-103 0-103 0 0-103 0-103 0 0 0 0-53 0-53 0 0 103 0 103 0 0 0 0-103 0-103 0 0 53 0 53 0 0 0 0 103 0 103"/>
<glyph glyph-name="right-dir" unicode="&#116;" d="M154 374c0 0 204-118 204-118 0 0-204-118-204-118 0 0 0 236 0 236"/>
<glyph glyph-name="twitter" unicode="&#117;" d="M492 402c-13-18-29-35-49-50 0 0 0-12 0-12 0-44-10-87-30-128-21-41-53-76-96-104-43-28-92-42-148-42-55 0-104 14-149 43 5-1 13-1 24-1 45 0 85 13 120 40-21 1-40 8-56 20-17 12-28 28-34 48 3-1 9-2 17-2 9 0 18 1 26 3-23 5-41 16-56 34-14 18-21 38-21 61 0 0 0 1 0 1 12-6 27-11 43-12-29 20-43 47-43 81 0 16 4 32 13 48 53-64 119-98 200-100-2 6-3 13-3 21 0 27 9 50 28 68 19 19 42 28 69 28 28 0 51-9 70-29 20 4 41 11 61 22-7-22-21-40-42-53 19 3 38 8 56 15"/>
<glyph glyph-name="vimeo" unicode="&#118;" d="M484 362c-11-63-40-123-87-179-48-57-90-97-126-122-14-9-28-12-41-8-14 3-25 10-34 19-9 9-17 20-22 31-6 11-19 52-40 123-21 70-34 109-38 114-5 4-12 5-19 3-8-3-15-6-23-11 0 0-10-7-10-7 0 0-19 25-19 25 6 7 14 16 24 27 9 11 27 26 51 45 25 20 46 31 64 35 10 2 19 1 27-4 8-4 14-10 18-18 5-7 9-18 12-31 3-12 6-24 8-35 1-11 3-24 6-39 2-14 4-26 6-34 5-18 9-32 11-41 3-9 5-18 9-28 3-9 6-16 9-20 3-3 6-5 9-5 14 0 35 28 65 85 14 26 15 47 3 63-12 17-32 17-57 1 7 43 31 75 71 96 36 19 67 20 93 5 28-16 38-46 30-90"/>
<glyph glyph-name="rss" unicode="&#120;" d="M130 130c11-11 18-26 18-43 0-17-7-32-18-43-11-11-26-18-43-18-17 0-32 7-43 18-12 11-18 26-18 43 0 17 6 32 18 43 11 11 26 18 43 18 17 0 32-7 43-18z m0 0z m-86-86z m-18 286l0-88c57 0 111-23 152-64 41-40 63-95 63-152l89 0c0 83-34 159-90 214-55 56-131 90-214 90z m0 156l0-88c205 0 372-167 372-372l88 0c0 127-51 242-135 325-83 84-198 135-325 135z"/>
<glyph glyph-name="youtube-alt" unicode="&#122;" d="M486 346c0 38-30 69-68 69l-324 0c-38 0-68-31-68-69l0-185c0-38 30-69 68-69l324 0c38 0 68 31 68 69z m-276-171l0 174 132-87z"/>
<glyph glyph-name="floppy" unicode="&#65;" d="M388 461c0 0 73-80 73-80 0 0 0-279 0-279 0-13-5-25-15-35-10-11-22-16-36-16 0 0-308 0-308 0-13 0-25 5-35 16-11 10-16 22-16 35 0 0 0 308 0 308 0 14 5 26 16 36 10 10 22 15 35 15 0 0 286 0 286 0m-30-154c0 0 0 128 0 128 0 0-204 0-204 0 0 0 0-128 0-128 0-7 2-13 7-18 5-5 11-7 18-7 0 0 154 0 154 0 7 0 13 2 18 7 5 5 7 11 7 18m-25 103c0 0 0-103 0-103 0 0-51 0-51 0 0 0 0 103 0 103 0 0 51 0 51 0"/>
<glyph glyph-name="map" unicode="&#66;" d="M504 384c5-3 8-9 8-15 0 0 0-299 0-299 0-7-3-12-8-16-3-2-6-3-8-3-3 0-6 1-10 3 0 0-110 70-110 70 0 0-111-70-111-70-6-3-12-3-17 0 0 0-112 70-112 70 0 0-110-70-110-70-6-3-12-3-18 0-5 4-8 9-8 16 0 0 0 299 0 299 0 6 3 12 8 15 0 0 120 75 120 75 6 3 12 3 17 0 0 0 111-70 111-70 0 0 112 70 112 70 5 3 11 3 16 0 0 0 120-75 120-75m-384-230c0 0 0 259 0 259 0 0-86-54-86-54 0 0 0-259 0-259 0 0 86 54 86 54m120-54c0 0 0 259 0 259 0 0-86 54-86 54 0 0 0-259 0-259 0 0 86-54 86-54m119 54c0 0 0 259 0 259 0 0-87-54-87-54 0 0 0-259 0-259 0 0 87 54 87 54m119-54c0 0 0 259 0 259 0 0-86 54-86 54 0 0 0-259 0-259 0 0 86-54 86-54"/>
<glyph glyph-name="reply-mail" unicode="&#68;" d="M512 192c0-32-12-75-36-129-1-1-2-3-3-7-2-3-3-6-4-8-1-3-3-5-4-7-2-3-5-4-8-4-3 0-5 1-7 2-1 2-2 5-2 8 0 1 0 4 1 7 0 3 0 6 0 7 1 13 2 25 2 35 0 19-2 36-5 52-3 15-8 28-14 39-6 11-14 21-23 29-9 8-19 15-30 20-11 5-23 9-38 12-15 3-29 5-44 6-15 1-31 2-50 2l-64 0 0-73c0-5-2-9-6-13-3-4-7-5-12-5-5 0-10 1-13 5l-147 146c-3 4-5 8-5 13 0 5 2 9 5 13l147 146c3 4 8 6 13 6 5 0 9-2 12-6 4-3 6-8 6-13l0-73 64 0c136 0 219-38 250-115 10-25 15-57 15-95z"/>
<glyph glyph-name="zoom-in" unicode="&#70;" d="M311 283l0-18c0-2-1-4-3-6-2-2-4-3-6-3l-64 0 0-64c0-2-1-5-3-6-2-2-4-3-6-3l-19 0c-2 0-4 1-6 3-2 1-3 4-3 6l0 64-64 0c-2 0-4 1-6 3-2 2-3 4-3 6l0 18c0 3 1 5 3 7 2 2 4 3 6 3l64 0 0 64c0 2 1 4 3 6 2 2 4 3 6 3l19 0c2 0 4-1 6-3 2-2 3-4 3-6l0-64 64 0c2 0 4-1 6-3 2-2 3-4 3-7z m36-9c0 36-12 66-37 91-25 25-55 37-91 37-35 0-65-12-90-37-25-25-38-55-38-91 0-35 13-65 38-90 25-25 55-38 90-38 36 0 66 13 91 38 25 25 37 55 37 90z m147-237c0-11-4-19-11-26-7-7-16-11-26-11-10 0-19 4-26 11l-98 98c-34-24-72-36-114-36-27 0-53 5-78 16-25 11-46 25-64 43-18 18-32 39-43 64-10 25-16 51-16 78 0 28 6 54 16 78 11 25 25 47 43 65 18 18 39 32 64 43 25 10 51 15 78 15 28 0 54-5 79-15 24-11 46-25 64-43 18-18 32-40 43-65 10-24 16-50 16-78 0-42-12-80-36-114l98-98c7-7 11-15 11-25z"/>
<glyph glyph-name="zoom-out" unicode="&#71;" d="M311 283l0-18c0-2-1-4-3-6-2-2-4-3-6-3l-165 0c-2 0-4 1-6 3-2 2-3 4-3 6l0 18c0 3 1 5 3 7 2 2 4 3 6 3l165 0c2 0 4-1 6-3 2-2 3-4 3-7z m36-9c0 36-12 66-37 91-25 25-55 37-91 37-35 0-65-12-90-37-25-25-38-55-38-91 0-35 13-65 38-90 25-25 55-38 90-38 36 0 66 13 91 38 25 25 37 55 37 90z m147-237c0-11-4-19-11-26-7-7-16-11-26-11-10 0-19 4-26 11l-98 98c-34-24-72-36-114-36-27 0-53 5-78 16-25 11-46 25-64 43-18 18-32 39-43 64-10 25-16 51-16 78 0 28 6 54 16 78 11 25 25 47 43 65 18 18 39 32 64 43 25 10 51 15 78 15 28 0 54-5 79-15 24-11 46-25 64-43 18-18 32-40 43-65 10-24 16-50 16-78 0-42-12-80-36-114l98-98c7-7 11-15 11-25z"/>
<glyph glyph-name="globe-world" unicode="&#72;" d="M256 475c40 0 77-9 110-29 34-20 60-46 80-80 20-33 29-70 29-110 0-40-9-77-29-110-20-34-46-60-80-80-33-20-70-29-110-29-40 0-77 9-110 29-34 20-60 46-80 80-20 33-29 70-29 110 0 40 9 77 29 110 20 34 46 60 80 80 33 20 70 29 110 29z m78-148c0-1-1-2-2-3-2-2-3-3-4-3 0 0 1 1 1 2 0 1 1 2 1 3 1 1 1 2 1 2 2 1 4 2 7 4 2 1 7 2 15 3 6 2 11 1 14-3 0 1 1 2 3 4 2 2 3 3 4 3 1 1 2 1 4 2 3 0 4 1 5 2l0 6c-2 0-4 1-5 2-1 2-2 4-2 6 0 0 0-1-1-2 0 1-1 2-2 2-1 0-2 0-3 0-1-1-2-1-3 0-1 0-3 1-4 2-1 1-2 2-2 4-1 3-1 4-1 5-1 1-2 2-3 3-1 1-2 2-3 3 0 0 0 1 0 1-1 1-1 2-1 2-1 1-1 1-1 2-1 0-1 0-2 0-1 0-1 0-2-1-1-1-1-2-2-3-1-1-1-1-1-1-1 0-2 0-2 0-1 0-1 0-1 0-1 0-1-1-2-1 0 0-1-1-1-1-1 0-2-1-3-1-1 0-1 0-2 0 3 1 3 2 0 3-2 0-4 1-5 1 2 0 3 1 2 3 0 2-1 3-2 4l1 0c0 1-1 2-2 2-2 1-3 2-5 3-2 1-3 1-4 2-1 1-5 1-10 2-5 1-8 1-9 0-1-1-1-2-1-3 0 0 0-2 1-4 1-1 1-3 1-3 0-1 0-3-2-4-1-1-2-2-2-3 0-2 2-3 4-5 3-1 4-3 3-6 0-1-2-3-4-4-3-2-4-3-5-4-1-1-1-3 0-5 0-2 1-4 3-5 0 0 0-1 0-1 0 0 0-1-1-1 0-1-1-1-1-1-1-1-2-1-2-1l-1-1c-2-1-4 0-6 2-2 2-3 4-4 7-1 5-3 8-4 9-5 1-8 1-9-1-1 3-5 5-11 8-5 2-11 2-17 1 1 0 1 2 0 4-1 3-3 4-5 4 0 1 1 3 1 5 0 2 0 3 0 4 1 2 2 4 3 6 1 0 1 1 2 3 2 1 2 2 3 3 1 2 1 2 0 2 7-1 12 0 15 3 1 1 2 3 3 5 1 2 2 4 3 5 2 1 3 2 4 2 1-1 2-1 4-2 2-1 3-1 4-1 3-1 4 0 5 3 0 2-1 4-3 5 3 0 3 2 1 5-1 2-1 2-2 3-2 1-5 0-8-2-1 0-1-1 1-2 0 0-1-1-3-3-1-2-3-4-5-5-1-1-3-1-4 2 0 0-1 1-2 3-1 3-1 4-2 4-2 0-3-1-5-4 1 2 0 3-3 4-3 2-5 2-7 3 4 2 3 4-2 7-2 1-4 2-6 2-3 0-5 0-6-1-1-2-1-3-1-4 0-1 0-1 1-2 1-1 2-1 3-2 1 0 2 0 3-1 2 0 2 0 3-1 3-1 3-3 2-4 0 0-1 0-2-1-2 0-3 0-4-1-1 0-1-1-1-1-1-1-1-2 0-4 0-2 0-3-1-4-1 1-2 3-2 5-1 2-2 4-2 5 1-2-1-3-8-2l-2 0c-1 0-3 0-5 0-2-1-4-1-6-1-1 1-3 1-4 3 0 1 0 3 0 5 0 1 1 1 1 1 0 1-1 1-3 3-1 1-2 2-3 2-8-3-17-7-26-12 1 0 2 0 3 1 1 0 2 1 4 2 1 0 2 1 3 1 6 3 10 3 12 2l1 2c3-3 5-6 6-8-2 1-4 1-9 1-4-1-6-3-6-4 1-2 2-4 1-5 0 1-2 2-3 3-1 1-3 2-4 3-1 1-3 1-4 2-3 0-6-1-7-1-28-15-50-36-67-63 1-1 3-2 4-2 0-1 1-1 1-3 0-2 0-3 1-3 0-1 1 0 3 1 2-2 2-4 1-6 0 0 4-2 12-7 4-4 6-6 6-6 1-3 0-4-2-6-1 1-1 2-3 3-2 1-2 2-3 1 0-1 0-3 1-5 0-3 1-4 3-4-2 0-3-1-3-4-1-3-1-7-1-10 0-4 0-6 0-7 0-3 0-6 2-10 2-5 4-6 6-6-2 0 0-5 6-12 1-2 2-3 2-3 1 0 2-1 4-2 1-1 3-2 4-3 1-1 2-2 3-3 0-1 1-3 3-6 1-3 2-6 4-7-1-1 0-3 2-6 2-2 3-4 3-6-1-1-1-1-1-1 0-1 2-2 4-4 3-1 4-2 5-3 0-1 0-2 0-3 0-2 1-3 1-3 1-1 1-1 2-1 1 4-1 10-6 18-3 4-5 7-5 8-1 1-1 2-2 4 0 2-1 4-1 5 0 0 1-1 2-1 0 0 1 0 2-1 1 0 2-1 2-1 1 0 1-1 1-1-1-1-1-3 0-5 1-2 2-4 4-5 1-2 3-3 5-6 1-2 3-3 3-3 1-1 2-3 4-6 2-2 2-4 0-4 2 0 4-1 6-3 2-1 3-3 5-5 1-2 1-4 2-8 0-3 1-5 1-7 1-1 1-2 3-3 1-2 2-3 3-3l5-2c0 0 1-1 4-2 1-1 2-2 5-3 2-2 4-3 6-4 2 0 3-1 5-1 1 0 2 0 4 1 1 0 3 1 4 1 2 0 5-1 8-4 3-4 5-6 6-6 7-4 12-5 16-4-1 0-1 0 0-2 0-1 1-2 2-4 1-2 2-3 3-4 0-1 1-2 1-3 1-1 3-2 5-4 3-2 4-3 5-4 2 0 2 1 2 2 0-1 1-3 2-5 2-3 4-4 6-3 2 0 4 3 4 9-6-3-11-1-14 5 0 0-1 1-1 2-1 0-1 1-1 2-1 1-1 2-1 2 0 1 0 2 0 3 0 0 1 0 1 0 2 0 3 1 3 1 0 1 0 2 0 4-1 2-1 3-1 4-1 1-2 3-4 5-1 3-3 4-3 5-1-2-2-3-5-3-2 1-3 1-4 3 0 0 0-1-1-2 0 0 0-1 0-1-2 0-4 0-4 0 0 0 0 2 0 5 1 3 1 5 1 6 1 1 1 2 2 4 1 1 2 3 2 4 1 1 1 2 1 3 0 2 0 2-1 3-1 1-3 1-5 1-4 0-6-2-7-6-1 0-1-1-1-3-1-1-1-2-2-3 0-1-1-2-2-2-2-1-4-1-7-1-3 0-6 1-7 2-2 1-5 4-6 8-2 4-3 8-3 11 0 1 0 4 1 7 0 3 0 6 0 7 1 2 0 4-1 7 0 1 1 2 2 3 2 1 3 2 3 3 1 0 1 0 2 0 0 1 0 1 1 0 0 0 1 0 1 1 0 0 1 1 1 2 0 0-1 0-1 0-1 1-1 1-1 1 1 0 4 0 8 1 4 1 6 0 8-1 2-2 5-2 6 1 0 0 0 1-1 3 0 1 0 2 0 3 1-5 4-6 8-2 1-1 2-1 5-2 2 0 4 0 5-1 0 0 1-1 2-2 0 0 1-1 1-1 1 0 1 0 2 0 0 1 1 1 2 2 2-3 3-5 4-7 2-7 3-12 5-12 1-1 2-1 3-1 1 0 1 1 1 3 1 1 1 3 0 4 0 1 0 2 0 3l0 8-1 2c-2 1-4 2-5 4-1 1 0 3 1 5 1 2 2 3 4 5 0 0 1 1 2 1 1 1 3 1 5 2 1 1 2 2 3 2 4 4 6 7 4 10 2 0 3 1 4 3-1 0-1 0-2 1-1 0-1 1-2 1-1 1-1 1-1 1 1 1 2 2 0 4 1 1 2 2 2 3 1 2 2 3 3 3 1-2 3-2 6 0 1 1 1 3 0 4 1 2 3 3 6 3 3 1 4 2 5 3 1 0 2 0 2 1 0 0 1 1 1 3 0 2 0 3 0 3 1 1 3 2 5 3 2 1 3 1 3 1l5 4c1 0 1 1 0 1 4-1 7 0 9 3 2 2 1 4-2 6 1 1 1 2 0 2-2 1-3 1-5 2 1 0 2 0 4 0 1 0 2 0 3 0 2 2 2 4-2 5-4 1-8 0-13-3z m-46-251c39 7 72 25 100 54-1 1-2 1-4 1-1 1-3 1-3 1-4 2-6 2-7 3 0 1 0 2-1 3 0 1-1 2-2 3-1 0-2 1-4 2-1 1-2 2-3 2 0 1-1 1-2 2-1 1-1 1-2 1 0 1-1 1-2 2-1 0-2 0-2 0-1 0-2 0-3 0l-1 0c-1 0-1-1-2-1 0 0-1-1-1-1-1 0-1 0-1-1-4 3-8 5-11 6-1 0-2 1-3 1-1 1-2 2-3 2-1 1-2 1-3 1-1 0-2-1-3-2-1-1-1-3-2-4 0-2 0-4 0-4-1 1-1 2 0 5 1 2 1 4 0 5 0 1-1 2-3 1-1 0-2 0-3-1-1 0-2-1-3-2-2-1-2-2-3-2 0 0-1-1-2-2-2-1-2-1-3-2 0-1-1-2-1-3-1-2-1-3-2-3 0 0-1 1-3 1-2 1-3 1-3 2 1-2 1-5 1-10 1-5 1-8 2-11 1-6 0-10-4-14-5-4-8-8-8-11-1-4 0-7 3-7 0-2 0-4-2-6-1-3-2-5-2-6 0-2 0-3 1-5z"/>
<glyph glyph-name="polaroid" unicode="&#73;" d="M32 480l448 0 0-448-448 0z m-32-480l512 0 0 512-512 0z m64 448l384 0 0-320-384 0z"/>
<glyph glyph-name="angle-double-right" unicode="&#75;" d="M280 238c0-3-1-5-3-7l-133-133c-2-2-4-3-7-3-2 0-5 1-6 3l-15 14c-2 2-3 4-3 7 0 2 1 5 3 6l113 113-113 112c-2 2-3 4-3 7 0 2 1 4 3 6l15 14c1 2 4 3 6 3 3 0 5-1 7-3l133-133c2-2 3-4 3-6z m109 0c0-3-1-5-2-7l-134-133c-1-2-4-3-6-3-3 0-5 1-7 3l-14 14c-2 2-3 4-3 7 0 2 1 5 3 6l112 113-112 112c-2 2-3 4-3 7 0 2 1 4 3 6l14 14c2 2 4 3 7 3 2 0 5-1 6-3l134-133c1-2 2-4 2-6z"/>
<glyph glyph-name="attention" unicode="&#78;" d="M499 65c4-6 4-12 0-18-3-5-8-8-15-8 0 0-457 0-457 0-6 0-11 3-14 8-4 6-4 12-1 18 0 0 228 400 228 400 3 6 8 9 16 9 7 0 12-3 15-9 0 0 228-400 228-400m-215 25c0 0 0 51 0 51 0 0-56 0-56 0 0 0 0-51 0-51 0 0 56 0 56 0m0 89c0 0 0 154 0 154 0 0-56 0-56 0 0 0 0-154 0-154 0 0 56 0 56 0"/>
<glyph glyph-name="chevron-down" unicode="&#80;" d="M479 311c0-10-4-19-11-26l-186-186c-7-7-16-11-26-11-10 0-19 4-26 11l-186 186c-7 7-11 16-11 26 0 10 4 19 11 26l21 21c8 7 17 11 26 11 11 0 19-4 26-11l139-139 139 139c7 7 15 11 26 11 9 0 18-4 26-11l21-21c7-8 11-16 11-26z"/>
<glyph glyph-name="thumbs-down" unicode="&#82;" d="M91 347c0-5-1-9-5-12-4-4-8-6-13-6-5 0-9 2-13 6-3 3-5 7-5 12 0 6 2 10 5 13 4 4 8 6 13 6 5 0 9-2 13-6 4-3 5-7 5-13z m46-146l0 183c0 5-2 9-5 13-4 3-8 5-13 5l-82 0c-5 0-10-2-13-5-4-4-6-8-6-13l0-183c0-5 2-9 6-13 3-3 8-5 13-5l82 0c5 0 9 2 13 5 3 4 5 8 5 13z m323 43c10-12 15-26 15-43 0-15-5-28-16-38-11-11-24-17-38-17l-80 0c1-2 2-5 3-7 0-1 2-4 3-6 1-2 2-4 3-5 3-7 6-12 7-16 2-4 4-10 6-17 2-7 3-15 3-22 0-4 0-8 0-11-1-3-1-7-2-13-1-6-2-10-3-14-2-4-4-8-7-13-3-5-7-9-12-12-4-3-10-5-17-7-7-2-15-3-23-3-5 0-10 2-13 5-4 4-7 9-10 15-3 5-4 10-5 15-1 4-3 10-4 17-2 8-3 14-4 17-1 4-2 8-5 14-2 6-5 10-9 14-6 6-16 18-29 34-9 12-19 24-28 35-10 11-18 16-22 17-5 0-9 2-12 5-4 4-6 8-6 13l0 183c0 5 2 9 6 13 3 3 8 5 13 5 6 0 21 5 45 13 15 5 26 9 34 11 9 3 20 5 35 8 15 3 29 5 41 5l37 0c25-1 44-8 56-22 11-14 16-31 14-52 8-7 13-16 16-27 3-12 3-23 0-33 8-12 13-25 12-40 0-6-1-13-4-21z"/>
<glyph glyph-name="chevron-up" unicode="&#83;" d="M479 165c0-11-4-19-11-26l-21-22c-8-7-16-10-26-10-11 0-19 3-26 10l-139 139-139-139c-7-7-15-10-26-10-10 0-18 3-25 10l-22 22c-7 7-11 15-11 26 0 10 4 18 11 26l186 186c7 7 16 10 26 10 10 0 19-3 26-10l186-186c7-8 11-16 11-26z"/>
<glyph glyph-name="plus" unicode="&#86;" d="M457 302l0-55c0-8-3-14-8-20-5-5-12-8-19-8l-119 0 0-118c0-8-3-15-8-20-5-5-12-8-20-8l-54 0c-8 0-15 3-20 8-5 5-8 12-8 20l0 118-119 0c-7 0-14 3-19 8-5 6-8 12-8 20l0 55c0 7 3 14 8 19 5 5 12 8 19 8l119 0 0 119c0 8 3 14 8 19 5 6 12 8 20 8l54 0c8 0 15-2 20-8 5-5 8-11 8-19l0-119 119 0c7 0 14-3 19-8 5-5 8-12 8-19z"/>
<glyph glyph-name="envelope" unicode="&#87;" d="M512 309l0-227c0-12-4-23-13-32-9-9-20-13-33-13l-420 0c-13 0-24 4-33 13-9 9-13 20-13 32l0 227c8-9 18-17 29-25 69-47 116-79 142-98 11-8 20-15 26-19 7-4 16-9 27-14 12-4 22-7 32-7 10 0 20 3 32 7 11 5 20 10 27 14 6 4 15 11 26 19 33 23 80 56 142 98 11 8 21 16 29 25z m0 84c0-15-5-29-14-43-9-14-21-25-35-35-71-50-116-81-134-93-1-1-6-4-12-9-6-4-11-8-15-11-4-2-9-5-15-9-6-3-11-6-16-8-6-1-10-2-15-2-5 0-9 1-15 2-5 2-10 5-16 8-6 4-11 7-15 9-4 3-9 7-15 11-6 5-11 8-12 9-18 12-43 30-75 52-33 23-52 36-59 41-12 8-23 19-33 33-11 14-16 27-16 39 0 15 4 27 12 37 8 10 19 15 34 15l420 0c13 0 23-5 32-14 9-9 14-19 14-32z"/>
<glyph glyph-name="whatsapp" unicode="&#88;" d="M512 263c0-138-113-250-251-250-44 0-86 11-122 31l-139-44 45 134c-23 37-36 81-36 129 0 137 113 249 252 249 138 0 251-112 251-249z m-251 209c-117 0-212-94-212-209 0-46 15-89 41-123l-27-78 81 26c34-22 74-35 117-35 116 0 211 94 211 210 0 115-95 209-211 209z m127-267c-2 3-6 4-12 7-6 3-37 18-42 20-6 2-10 3-14-3-4-6-16-20-20-24-3-4-7-4-13-1-6 3-26 9-50 30-18 16-30 36-34 42-3 6 0 10 3 13 3 2 6 7 9 10 3 4 4 7 6 11 2 4 1 7 0 10-2 3-14 33-19 46-5 12-11 10-14 10-4 0-8 0-12 0-4 0-11-1-16-7-6-6-22-21-22-51 0-30 22-59 25-63 3-4 43-68 105-93 63-24 63-16 74-15 12 1 37 15 42 29 5 14 5 27 4 29z"/>
<glyph glyph-name="facebook" unicode="&#89;" d="M292 353l74 0-9-81-65 0 0-235-97 0 0 235-49 0 0 81 49 0 0 49c0 35 8 61 24 79 17 18 44 26 81 26l65 0 0-81-40 0c-8 0-14 0-18-2-5-1-8-3-10-6-2-4-3-7-4-10 0-3-1-8-1-14z"/>
<glyph glyph-name="ojosacom" unicode="&#49;" d="M55 257c205-278 402 0 402 0-225 273-402 0-402 0z m201-84c-48 0-87 38-87 87 0 47 39 87 87 87 48 0 87-39 87-87 0-49-39-87-87-87z m0 142c-7 0-12 0-18-3 11-5 18-16 18-29 0-17-14-31-31-31-11 0-20 5-26 13 0-2-1-5-1-8 0-32 26-57 58-57 32 0 58 25 58 57 0 32-26 58-58 58z"/>
<glyph glyph-name="carritosacom" unicode="&#50;" d="M433 334c-2 3-15 5-19 5l-7-22-41-130-187 0-33 182c-1 4-4 8-8 9l-55 21c-5 3-13 0-15-6-2-6 1-13 7-16l49-19 34-185c1-6 6-9 12-9l6 0-14-36c-1-3 0-7 2-9 2-3 5-4 8-4l9 0c-6-7-9-15-9-24 0-19 16-35 35-35 20 0 35 16 35 35 0 9-4 18-9 24l77 0c-6-7-9-15-9-24 0-19 16-35 35-35 19 0 36 16 36 35 0 9-4 18-9 24l11 0c5 0 9 4 9 9 0 5-4 10-9 10l-188 0 11 29 177 0c6 0 10 3 11 8l49 152c1 5 1 8-1 11z m-226-258c-9 0-15 7-15 15 0 9 7 16 15 16 9 0 16-8 16-16-1-8-7-15-16-15z m129 0c-8 0-15 7-15 15 0 9 7 16 15 16 9 0 17-8 17-16 0-8-8-15-17-15z m-56 411c-44 0-80-36-80-80 0-43 80-183 80-183 0 0 80 140 80 183 0 44-36 80-80 80z m0-125c-24 0-44 20-44 44 0 24 20 44 44 44 24 0 44-20 44-44 0-24-20-44-44-44z"/>
<glyph glyph-name="heart" unicode="&#51;" d="M256 37c-5 0-9 1-13 5l-178 172c-2 1-4 4-8 7-3 4-8 10-16 19-7 9-13 18-19 28-6 9-11 21-15 34-5 14-7 27-7 40 0 42 12 74 36 98 24 24 58 35 101 35 11 0 23-2 36-6 12-4 23-9 34-16 11-7 20-14 27-20 8-6 15-12 22-19 7 7 14 13 22 19 7 6 16 13 27 20 11 7 22 12 34 16 13 4 25 6 36 6 43 0 77-11 101-35 24-24 36-56 36-98 0-42-22-85-65-129l-178-171c-4-4-8-5-13-5z"/>
<glyph glyph-name="heart-empty" unicode="&#52;" d="M475 342c0 15-2 29-6 41-4 11-9 21-15 28-7 7-15 12-24 17-9 4-18 7-27 9-8 1-18 2-28 2-9 0-20-3-32-7-11-5-22-11-31-19-10-7-18-14-25-20-7-7-12-13-17-18-3-4-8-6-14-6-6 0-11 2-14 6-5 5-10 11-17 18-7 6-15 13-25 20-9 8-20 14-31 19-12 4-23 7-32 7-10 0-20-1-28-2-9-2-18-5-27-9-9-5-17-10-24-17-6-7-11-17-15-28-4-12-6-26-6-41 0-32 17-66 53-102l166-160 166 160c36 36 53 70 53 102z m37 0c0-42-22-85-65-129l-178-171c-4-4-8-5-13-5-5 0-9 1-13 5l-178 172c-2 1-4 4-8 7-3 4-8 10-16 19-7 9-13 18-19 28-6 9-11 21-15 34-5 14-7 27-7 40 0 42 12 74 36 98 24 24 58 35 101 35 11 0 23-2 36-6 12-4 23-9 34-16 11-7 20-14 27-20 8-6 15-12 22-19 7 7 14 13 22 19 7 6 16 13 27 20 11 7 22 12 34 16 13 4 25 6 36 6 43 0 77-11 101-35 24-24 36-56 36-98z"/>
<glyph glyph-name="ver-listado" unicode="&#53;" d="M456 222l-297 0c-19 0-33 15-33 32 0 19 16 33 33 33l297 0c18 0 32-16 32-33 0-18-15-32-32-32z m0 118l-297 0c-19 0-33 15-33 32 0 19 16 32 33 32l297 0c18 0 32-15 32-32 0-19-15-32-32-32z m0-238l-297 0c-19 0-33 16-33 33 0 19 16 32 33 32l297 0c18 0 32-15 32-32 0-17-15-33-32-33z m-395 236c-18 0-34 15-34 34 0 19 16 34 34 34 19 0 35-15 35-34 0-19-16-34-35-34z m0-118c-18 0-34 16-34 34 0 19 16 34 34 34 19 0 35-15 35-34 0-18-16-34-35-34z m0-119c-18 0-34 15-34 34 0 19 16 34 34 34 19 0 35-15 35-34 0-19-16-34-35-34z"/>
<glyph glyph-name="ver-mosaico" unicode="&#55;" d="M218 285l-169 0c-5 0-8 3-8 9l0 169c0 5 3 8 8 8l168 0c5 0 8-3 8-8l0-168c2-5-3-10-7-10z m245 0l-168 0c-5 0-8 3-8 9l0 169c0 5 3 8 8 8l168 0c5 0 8-3 8-8l0-168c0-5-5-10-8-10z m-245-244l-169 0c-5 0-8 3-8 8l0 168c0 5 3 8 8 8l168 0c5 0 8-3 8-8l0-168c2-3-3-8-7-8z m245 0l-168 0c-5 0-8 3-8 8l0 168c0 5 3 8 8 8l168 0c5 0 8-3 8-8l0-168c0-3-5-8-8-8z"/>
<glyph glyph-name="font" unicode="&#57;" d="M225 352l-48-128c6 0 19 0 39-1 20 0 35 0 46 0 3 0 9 0 16 0-17 48-34 91-53 129z m-207-315l1 22c4 1 10 3 16 4 6 1 12 2 16 3 5 1 9 2 14 4 5 2 9 4 13 8 4 4 7 9 9 15l68 176 80 206 36 0c2-2 3-4 3-6l59-137c6-15 16-39 30-73 14-34 25-61 33-79 3-6 8-20 16-41 8-21 15-37 21-48 4-9 7-14 10-16 3-3 12-6 25-9 13-3 21-5 24-6 1-7 2-12 2-16 0-1 0-2 0-4-1-1-1-3-1-3-12 0-30 0-54 2-24 1-42 2-54 2-15 0-35-1-62-2-26-1-43-2-51-2 0 8 1 15 1 22l38 8c0 0 1 0 3 1 3 0 4 1 5 1 1 0 2 0 4 1 2 1 3 1 4 2 1 1 2 1 3 2 2 1 3 2 3 3 0 2 1 3 1 4 0 3-3 13-9 28-6 15-13 32-21 51-8 18-12 28-12 28l-128 1c-5-11-13-30-22-56-10-26-15-42-15-46 0-5 2-8 4-11 3-3 7-5 13-7 5-2 10-3 14-4 3-1 9-2 16-2 7-1 11-2 12-2 0-3 0-9 0-16 0-2 0-4-1-8-11 0-27 1-49 3-23 2-39 3-50 3-2 0-4-1-8-1-3-1-5-1-6-1-15-3-33-4-54-4z"/>
<glyph glyph-name="menumania" unicode="&#34;" d="M312 169c-65 46-87 44-136 77-53 36-77 80-70 90 7 10 31-10 87-48 61-41 54-46 107-83-5 15-13 27-24 34-15 10-22 19-29 44-6 26-10 63-11 86-2 22 3 8 6-9 4-15 9-41 14-58 3-17 3-19 7-17 3 0 2 3 0 12-2 10-10 48-14 67-3 20 0 20 4 11 3-8 8-30 15-54 7-24 7-33 12-33 3 2 0 14-5 35-5 20-10 39-12 52-2 18 3 11 7 0 3-10 10-27 17-51 8-25 10-29 12-27 1 2 0 5-7 29-7 26-12 39-17 55-4 15 1 10 3 6 2-5 7-13 14-32 7-19 17-41 22-61 5-21 5-28 0-41-3-14-3-19 2-33 3-10 3-13 8-29 0 0 2-2 2-2 27-18 34-22 77-47 17-11 34-23 48-33 10 4 15 5 13 7 16-14-54 364-63 350 9 14-369-56-355-65-14 9 56-369 65-355-5-7 119 14 224 33-7 32-18 68-23 90z m28-21c6-17 13-35 24-63 18 4 34 7 49 11-22 13-46 32-73 52z"/>
<glyph glyph-name="otros" unicode="&#35;" d="M172 256c0-30-24-55-54-55-30 0-55 25-55 55 0 30 25 55 55 55 30 0 54-25 54-55z m140 0c0-30-24-55-54-55-30 0-55 25-55 55 0 30 25 55 55 55 30 0 54-25 54-55z m137 0c0-30-25-55-55-55-30 0-54 25-54 55 0 30 24 55 54 55 30 0 55-25 55-55z"/>
<glyph glyph-name="three-bars" unicode="&#36;" d="M64 416l0-64 384 0 0 64z m0-192l384 0 0 64-384 0z m0-128l384 0 0 64-384 0z"/>
<glyph glyph-name="thumbs-up" unicode="&#38;" d="M91 128c0 5-1 9-5 13-4 3-8 5-13 5-5 0-9-2-13-5-3-4-5-8-5-13 0-5 2-9 5-13 4-4 8-5 13-5 5 0 9 1 13 5 4 4 5 8 5 13z m46 146l0-183c0-5-2-9-5-12-4-4-8-6-13-6l-82 0c-5 0-10 2-13 6-4 3-6 7-6 12l0 183c0 5 2 10 6 13 3 4 8 6 13 6l82 0c5 0 9-2 13-6 3-3 5-8 5-13z m338 0c0-16-5-30-15-42 3-9 4-16 4-22 1-14-4-28-12-39 3-11 3-22 0-34-3-10-8-19-16-26 2-22-3-39-14-52-12-15-31-22-56-22l-37 0c-12 0-26 1-41 4-15 3-26 6-35 8-8 3-19 7-34 12-24 8-39 12-45 12-5 0-10 2-13 6-4 3-6 7-6 12l0 184c0 4 2 8 6 12 3 4 7 5 12 6 4 0 12 6 22 17 9 11 19 22 28 34 13 17 23 28 29 35 4 3 7 8 9 13 3 6 4 11 5 14 1 4 2 9 4 17 1 8 3 14 4 18 1 4 2 9 5 15 3 5 6 10 10 14 3 4 8 5 13 5 8 0 16-1 23-3 7-2 13-4 17-7 5-3 9-7 12-12 3-4 5-9 7-12 1-4 2-9 3-15 1-5 1-10 2-13 0-2 0-6 0-11 0-7-1-14-3-21-2-8-4-13-5-18-2-4-5-9-8-16-1-1-2-2-3-5-1-2-3-4-3-6-1-2-2-4-3-7l80 0c14 0 27-5 38-16 11-11 16-24 16-39z"/>
<glyph glyph-name="viajes" unicode="&#39;" d="M256 512c-141 0-256-115-256-256 0-141 115-255 256-255 141 0 255 114 255 255 0 141-114 256-255 256z m0-491c-130 0-236 105-236 235 0 130 106 236 236 236 130 0 235-106 235-236 0-130-105-235-235-235z m209 241l-131 0c0 3-1 6-2 9-9 29-30 43-56 46l0 35 56 7c1 0 2 1 2 3l0 1c0 1-1 3-2 3l-57 0c0 0 0 0-1-1l-2 34c0 2-1 3-3 3l-6 0c-1 0-2-1-2-3l-2-34c-1 1-1 1-1 1l-58 0c-1 0-1-2-1-3l0-1c0-2 0-3 1-3l56-7 0-35c-26-3-48-16-57-46-1-3-2-6-3-9l-128 0c-5 0-8-4-8-8 0-5 3-9 8-9l52 0c-11-4-20-14-20-27 0-17 14-30 30-30 16 0 29 14 29 30 0 13-8 23-19 27l54 0c0-1 0-3 0-5 0-6 1-12 2-18 6-38 32-62 64-64l0-22-1 0c0 0-1 0-1 0l0 7c0 3-1 5-3 5l-11 0c-1 0-3-2-3-5l0-26c0-3 2-5 3-5l11 0c2 0 4 2 4 5l0 7 16 0 0-7c0-3 1-5 3-5l11 0c1 0 3 2 3 5l-1 26c0 3-1 5-3 5l-11 0c-1 0-3-2-3-5l0-7-2 0 0 22c31 3 57 27 63 65 1 5 1 11 1 17 0 2 0 4 0 6l56 0c-11-4-19-15-19-28 0-16 13-29 29-29 17 0 30 13 30 29 0 13-8 24-20 28l53 0c4 0 8 3 8 8 0 4-4 8-8 8z m-322-44c0-7-6-13-13-13-7 0-13 6-13 13 0 7 6 13 13 13 7 0 13-6 13-13z m123 25c-31 0-55-25-55 5 0 30 24 54 55 54 31 0 56-24 56-54-1-30-25-5-56-5z m150-25c0-7-6-13-13-13-7 0-13 6-13 13 0 7 6 13 13 13 7 0 13-6 13-13z"/>
<glyph glyph-name="salud" unicode="&#42;" d="M256 512c-141 0-256-115-256-256 0-141 115-255 256-255 141 0 255 114 255 255 0 141-114 256-255 256z m0-491c-130 0-236 105-236 235 0 130 106 236 236 236 130 0 235-106 235-236 0-130-105-235-235-235z m-70 229c-7 7-18 7-24 0-7-6-7-17 0-24l28-28c5-5 5-12 0-16-4-4-11-5-16 0-11 11-20 20-28 28-8 8-12 18-12 28l-3 51c0 8-6 15-14 15-8 0-14-7-14-15l0-84c0-8 2-15 7-21l35-51c2-3 3-7 3-10l0-23 91 0 0 75c0 14-6 28-16 38z m219 53c-7 0-14-6-14-14l-3-51c0-10-4-20-11-28-9-8-18-17-29-28-4-5-11-5-16 0-4 4-4 11 0 16l29 28c6 7 6 17 0 24-7 7-18 7-24 0l-37-37c-10-10-16-24-16-39l0-74 90 0 0 22c0 4 2 7 4 11l35 51c4 6 7 13 7 20l0 85c0 8-7 14-15 14z m-42 56c0 32-24 57-54 57-21 0-39-12-48-31-9 19-27 31-48 31-30 0-54-25-54-57 0-16 7-30 17-41l81-80c2-3 7-3 10 0l80 80c10 11 16 25 16 41z"/>
<glyph glyph-name="restaurante" unicode="&#43;" d="M338 369l118 118c1 1 3 1 4 1 1 0 2-1 3-2 33-76 21-145-35-201l-43-43c-4-4-4-10 0-14 2-2 5-3 8-3 2 0 5 1 7 3l42 42c63 63 76 140 40 224-4 7-10 13-18 14-8 2-17-1-22-7l-118-118c-4-4-4-10 0-14 3-4 10-4 14 0z m-110-201l-147-137c-11-12-29-12-41 0-5 5-8 12-8 20 0 8 3 15 8 20l112 103c4 3 5 10 1 14-4 4-10 4-14 1l-113-103c-9-9-14-22-14-35 0-13 5-25 14-35 10-9 22-14 35-14 12 0 25 5 34 14l147 137c4 4 4 10 0 14-3 4-10 5-14 1z m268-82l-177 176c12 38 2 80-26 109l-15 14c-30 31-126 113-129 117-9 9-25 9-34 0-9-10-9-25 0-34l107-119c2-2 2-4 0-6l-1-1c-3-2-4-2-6 0l-118 107c-9 9-25 9-34 0-5-4-7-10-7-17 0-6 2-12 6-16l108-119c2-2 1-5 0-6l-1-1c-3-3-4-2-6-1l-119 108c-9 9-25 9-34 0-9-10-9-25 0-34 4-4 86-99 117-130l15-14c20-20 47-31 75-31 11 0 22 1 33 5l176-177c10-9 22-14 35-14 13 0 25 5 35 14 9 9 14 22 14 35 0 13-5 26-14 35z m-15-55c-11-11-30-11-40 0l-181 181c-2 2-5 3-8 3-1 0-2 0-3-1-10-4-21-6-32-6-23 0-45 9-61 26l-15 14c-30 31-115 128-116 130-2 1-2 3 0 5 1 1 2 1 2 1 1 0 2 0 3-1l119-108c10-9 25-8 34 1l1 1c10 9 10 24 1 34l-108 119c-1 1-1 2-1 2 0 1 0 2 1 3 1 1 2 1 3 1 0 0 1 0 3-2l119-107c9-9 25-8 34 1l1 1c9 9 10 24 1 34l-109 119c-1 1-1 4 0 5 1 1 2 1 3 1 1 0 2 0 3-1 1-1 99-86 129-116l15-15c24-24 32-61 19-93-1-4 0-8 2-11l182-181c11-11 11-29-1-40z"/>
<glyph glyph-name="distancia" unicode="&#45;" d="M486 269l-38 0c-7 96-83 172-179 179l0 38c0 7-6 13-13 13-7 0-13-6-13-13l0-38c-96-7-172-83-179-179l-38 0c-7 0-13-6-13-13 0-7 6-13 13-13l38 0c7-96 83-172 179-179l0-38c0-7 6-13 13-13 7 0 13 6 13 13l0 38c96 7 172 83 179 179l38 0c7 0 13 6 13 13 0 7-6 13-13 13z m-243-154c-67 7-121 61-128 128l26 0c6-53 49-96 102-102z m0 256c-53-6-96-49-102-102l-26 0c7 67 61 121 128 128z m26 26c67-7 121-61 128-128l-26 0c-6 53-49 96-102 102z m0-282l0 26c53 6 96 49 102 102l26 0c-7-67-61-121-128-128z"/>
<glyph glyph-name="quehacer" unicode="&#46;" d="M258 353c-21 0-63-14-73-62 0 0-4-32 14-48l119 0c18 16 14 48 14 48-10 49-53 62-74 62z m46-152l-91 0c-12 0-21-10-21-21l0-27c0-11 9-21 21-21l91 0c12 0 21 10 21 21l0 27c0 11-9 21-21 21z m58 102c-10 45-34 67-61 76l0 6c0 18-15 33-34 33l-17 0c-19 0-34-15-34-33l0-6c-27-10-52-31-61-76-15-66-8-166 7-189 12-19 73-20 91-20l11 0c18 0 79 1 92 20 14 23 21 123 6 189z m-130 82c0 10 8 18 18 18l17 0c10 0 18-8 18-18l0-1c-9 1-18 2-26 2-9 0-18-1-27-2z m102-231c0-18-14-32-32-32l-87 0c-18 0-32 14-32 32l0 25c0 18 14 32 32 32l87 0c18 0 32-14 32-32z m-10 80l-131 0c0 0-21 20-17 57 0 0 7 71 82 71 76 0 83-71 83-71 4-37-17-57-17-57z m51-22c1-61-12-97-12-97 17-7 24-2 29 8 5 11 2 71-5 81-6 10-12 8-12 8z m-233 0c0 0-6 2-12-8-6-10-10-71-5-81 5-10 12-15 29-8-1 0-13 36-12 97z m28 140c0 0 9 19 35 29 0 0-27 5-44 19l-15-19c0 1 15-2 24-29z m177 0c9 27 24 29 24 29l-15 19c-17-14-44-19-44-19 26-10 35-29 35-29z m-91 160c-141 0-256-115-256-256 0-141 115-255 256-255 141 0 255 114 255 255 0 141-114 256-255 256z m0-491c-130 0-236 105-236 235 0 130 106 236 236 236 130 0 235-106 235-236 0-130-105-235-235-235z"/>
<glyph glyph-name="llamar" unicode="&#47;" d="M256 512c-141 0-256-115-256-256 0-139 113-253 252-255 5-1 10-1 15-1 53 0 89 14 108 43 21 30 13 68 7 87 5 4 10 8 15 12 15 14 11 31-9 40-19 8-36 18-52 29-12-10-24-21-35-31-9-7-26-6-38 3-30 25-57 55-78 89-8 13-7 30 2 37 11 10 23 21 35 31-9 18-17 36-23 55-7 21-22 28-38 14-12-10-23-21-35-31-16-14-25-43-19-64 30-95 99-172 189-213 16-8 39-5 55 3 2-13 2-29-6-41-13-19-45-28-92-26-119 2-216 100-216 219 0 121 98 219 219 219 120 0 219-98 219-219 0-44-13-86-38-122-5-9-3-20 5-26 9-5 20-3 26 5 28 43 43 92 43 143 0 141-114 256-255 256z"/>
<glyph glyph-name="search" unicode="&#58;" d="M501 79l-88 88c22 35 35 77 35 121 0 124-100 224-224 224-124 0-224-100-224-224 0-124 100-224 224-224 44 0 86 13 121 35l88-88c6-6 16-6 22 0l46 46c6 6 6 16 0 22m-277 49c-88 0-160 72-160 160 0 88 72 160 160 160 88 0 160-72 160-160 0-88-72-160-160-160"/>
<glyph glyph-name="bubbles-talk" unicode="&#59;" d="M448 352l-32 0 0-32c0-49-47-96-96-96l-147 0-45-45 0-19c0-32 32-64 64-64l160 0 96-96 0 96c32 0 64 32 64 64l0 128c0 32-32 64-64 64m-288-96l160 0c32 0 64 32 64 64l0 128c0 32-32 64-64 64l-256 0c-32 0-64-32-64-64l0-128c0-32 32-64 64-64l0-96z"/>
<glyph glyph-name="hotel" unicode="&#60;" d="M482 243l0 216c0 19-16 35-34 35-19 0-35-16-35-35l0-24c-102 33-213 33-316 0l0 24c1 19-15 35-33 35-19 0-35-16-35-35l0-216c-18-19-29-45-29-74l0-128c0-11 9-19 19-19l79 0c11 0 19 8 19 19l0 30 277 0 0-30c0-11 9-19 19-19l79 0c11 0 19 8 19 19l0 128c0 29-11 55-29 74z m-418 232c8 0 15-7 15-15l0-37c0-3 1-6 4-8 2-2 5-2 8-1 106 36 223 36 329 0 3-1 6-1 9 1 2 2 3 5 3 8l0 36c0 9 7 16 16 16 8 0 15-7 15-16l0-200c-17 11-38 18-60 18l-295 0c-22 0-42-7-60-18l0 200c0 9 7 16 16 16z m428-435l-79 1 0 30 28 0c6 0 10 4 10 9 0 6-5 10-10 10l-371 0c-5 0-9-4-9-10 0-5 4-9 9-9l28 0 0-31-79 1 0 128c0 49 40 89 89 89l296 0c49 0 89-40 89-89z m-404 246c6 0 10 4 10 9l0 32c0 22 18 40 40 40l69 0c21 0 39-18 39-40 0-5 5-9 10-9 5 0 9 4 9 9 1 22 18 40 40 40l69 0c22 0 40-18 40-40l0-31c0-6 4-10 9-10 6 0 10 4 10 10l0 31c0 32-27 58-59 58l-69 0c-20 0-39-10-49-26-11 16-29 26-50 26l-69 0c-32 0-58-26-58-58l0-31c0-6 4-10 9-10z"/>
<glyph glyph-name="hospital" unicode="&#61;" d="M456 258l-73 65c-8 6-21 11-31 11l-19 0c-13 0-25-11-25-25l0-76c0-14 12-25 25-25l112 0c14 0 25 10 25 22 0 10-7 22-14 28z m-11-26l-112 0c0 0-1 1-1 1l0 76c0 1 1 2 1 2l19 0c4 0 12-3 15-6l73-65c3-2 5-5 6-8 0 0-1 0-1 0z m-298-122c0-8-7-15-15-15-9 0-16 7-16 15 0 9 7 16 16 16 8 0 15-7 15-16z m349 166l-95 87c-9 8-24 14-36 14l-337 0c-16 0-28-13-28-28l0-224c0-15 12-28 28-28l41 0c6-29 32-51 63-51 31 0 56 22 63 51l127 0c6-29 32-51 63-51 30 0 56 22 62 51l37 0c15 0 27 13 27 28l0 115c0 12-6 28-15 36z m-364-206c-23 0-41 18-41 40 0 23 19 41 41 41 22 0 40-18 40-41 0-22-18-40-40-40z m253 0c-23 0-41 18-41 40 0 23 18 41 41 41 22 0 40-18 40-41 0-22-18-40-40-40z m103 55c0-2-2-4-4-4l-36 0c-5 31-32 54-63 54-32 0-59-24-64-54l-126 0c-5 31-31 54-63 54-32 0-58-24-63-54l-41 0c-2 0-4 2-4 4l0 224c0 2 2 4 4 4l337 0c6 0 15-4 20-8l95-87c4-4 8-12 8-18z m-269 265l24 0 0 22c0 0 0 14 8 23 5 5 12 7 22 7 10 0 17-2 22-7 8-9 8-23 8-23l0-22 24 0 0 21c0 3 0 24-15 40-10 10-23 15-39 15-16 0-29-5-39-15-15-16-15-37-15-39z m-7-102l-26 0 0 27c0 6-6 12-12 12l-38 0c-6 0-12-6-12-12l0-27-26 0c-7 0-12-5-12-11l0-38c0-7 5-12 12-12l26 0 0-26c0-7 6-12 12-12l38 0c6 0 12 5 12 12l0 26 26 0c7 0 12 5 12 12l0 38c0 6-6 11-12 11z m-12-37l-26 0c-7 0-12-6-12-12l0-26-14 0 0 26c0 6-5 12-12 12l-26 0 0 14 26 0c7 0 12 5 12 12l0 26 14 0 0-26c0-7 5-12 12-12l26 0z m200-141c0-8-7-15-15-15-9 0-16 7-16 15 0 9 7 16 16 16 8 0 15-7 15-16z"/>
<glyph glyph-name="star-outline" unicode="&#62;" d="M458 302l-145 12-57 134-57-134-145-12 110-96-33-142 125 75 125-75-33 142z m-185-135l-17 10-17-10-60-36 16 68 5 19-15 12-53 46 70 6 19 2 8 18 27 64 27-64 8-18 19-2 70-6-53-46-15-12 5-19 16-68z"/>
<glyph glyph-name="star-half" unicode="&#63;" d="M458 302l-145 12-57 134-57-134-145-12 110-96-33-142 125 75 125-75-33 142z m-185-135l-17 10 0 189 27-64 8-18 19-2 70-6-53-46-15-12 5-19 16-68z"/>
<glyph glyph-name="escuela" unicode="&#64;" d="M511 191c0 17-11 31-26 36l0 70c0 1 0 3-1 4 0 0 0 0 0 1-1 1-1 1-2 2 0 0 0 1 0 1-1 0-2 1-3 1 0 1 0 1-1 1l-232 91c-2 1-5 1-7 0l-232-91c-4-2-7-6-7-10 0-4 3-8 7-10l86-34 0-71c0-43 77-67 149-67 73 0 150 24 150 67l0 71 71 28 0-54c-15-5-26-19-26-36 0-17 11-30 26-35l0-31c0-6 5-11 11-11 6 0 11 5 11 11l0 31c15 5 26 18 26 35z m-269 185l175-68-175 0c-6 0-10-5-10-11 0-6 4-11 10-11l175 0-175-68-202 79z m129-194c0-21-55-45-129-45-73 0-128 24-128 45l0 63 125-49c1 0 2 0 3 0 2 0 3 0 4 0l125 49z m103-6c-8 0-15 6-15 15 0 9 7 16 15 16 9 0 16-7 16-16 0-8-7-15-16-15z"/>
<glyph glyph-name="busqueda" unicode="&#91;" d="M493 102l-114 115c15 28 23 60 23 94 0 109-89 198-198 198-110 0-199-89-199-198 0-110 89-199 199-199 33 0 65 8 93 23l112-118c24-23 61-23 84 0 24 24 24 62 0 85z m-436 209c0 80 66 146 147 146 81 0 146-66 146-146 0-81-66-147-146-147-81 0-147 66-147 147z"/>
<glyph glyph-name="star-full" unicode="&#93;" d="M256 139l125-75-33 142 110 96-145 12-57 134-57-134-145-12 110-96-33-142z"/>
<glyph glyph-name="filtros" unicode="&#94;" d="M456 428c3-8 2-15-4-20l-141-141 0-212c0-8-4-14-11-17-3-1-5-1-7-1-6 0-10 1-13 5l-73 73c-4 4-6 8-6 13l0 139-141 141c-6 5-7 12-4 20 4 7 9 11 17 11l366 0c8 0 13-4 17-11z"/>
<glyph glyph-name="seccionamarilla" unicode="&#123;" d="M432 236l-14-113 17 0 2 27 8 0 2-27 17 0-10 113z m8-67l4 36 3-36z m-245 67l-14-113 17 0 2 27 8 0 2-27 17 0-10 113z m8-67l4 36 3-36z m-145 67l-14-113 17 0 2 27 9 0 1-27 17 0-10 113z m9-67l3 36 3-36z m71 10l-7 57-29 0 0-113 17 0 0 66 9-66 19 0 8 66 0-66 19 0 0 113-29 0z m154 57l19 0 0-113-19 0z m97 0l-20 0 0-113 41 0 0 19-21 0z m-49 0l-19 0 0-113 39 0 0 19-20 0z m-57-70c0 5 0 18-10 18 0 0 10 2 10 26 0 20-7 26-25 26l-19 0 0-111 19 0 0 49c0 5 7-2 7-7l0-34c0-7 1-10 1-10l19 0c0 0-2 3-2 10z m-25 27l0 25c0 0 7 2 7-11 0-16-7-14-7-14z m135 155c0 22-19 41-41 41-23 0-41-19-41-41 0-22 41-94 41-94 0 0 41 72 41 94z m-64-2c0 12 11 23 23 23 12 0 22-11 22-23 0-11-10-22-22-22-12 0-23 11-23 22z m118 41l0-68-12 68-32 0 0-131 19 0 0 84 17-84 27 0 0 131z m-177-111c0 24 0 29 0 29l-21 0c0 0 0-13 0-27 0-10-10-10-10 0 0 5 0 24 0 41 0 17 0 36 0 41 0 10 10 10 10 0 0-12 0-27 0-27l21 0c0 0 0 5 0 29 0 27-52 32-52-4 0-12 0-27 0-41 0-13 0-27 0-39 0-32 52-29 52-2z m-62 0c0 24 0 29 0 29l-20 0c0 0 0-13 0-27 0-10-11-10-11 0 0 5 0 24 0 41 0 17 0 36 0 41 0 10 11 10 11 0 0-12 0-27 0-27l20 0c0 0 0 5 0 29 0 27-51 32-51-4 0-12 0-27 0-41 0-13 0-27 0-39 0-32 51-29 51-2z m-61 0l-19 0 0 33 19 0 0 24-19 0 0 27 19 0 0 27-39 0 0-131 39 0z m-77 64c-5 6-3 12-3 24 0 6 10 8 10 0 0-7 0-28 0-28l20 0c0 0 0 17 0 29 0 29-51 29-51 0 0-5 0-12 0-19 0-10 5-17 7-18 2-2 15-21 19-24 5-7 5-10 5-24 0-12-10-12-10 0 0 3 0 25 0 25l-21 0c0 0 0-20 0-29 0-29 51-29 51 0 0 6 2 26-5 35-8 10-19 24-22 29z m210 47l20 0 0-131-20 0z"/>
<glyph glyph-name="mic" unicode="&#98;" d="M409 322c0 6-4 10-10 10l-21 0c-5 0-10-4-10-10l0-69c0-61-51-110-112-110-61 0-111 49-112 110l0 69c0 6-4 10-10 10l-21 0c-6 0-11-4-11-10l0-56c0-1 0-2 0-2 0-3 0-5 0-8 0-78 58-142 133-152l0-62-46 0c-6 0-10-5-10-11l0-20c0-6 4-10 10-10l132 0c6 0 11 4 11 10l0 20c0 6-5 11-11 11l-45 0 0 62c75 10 132 75 132 152 0 3 0 5 0 8 0 0 0 1 0 2l0 56z m-154-142c42 0 77 34 77 76l0 179c0 43-35 77-77 77-42 0-76-34-76-77l0-178c0-42 34-77 76-77z"/>
<glyph glyph-name="right" unicode="&#81;" d="M405 286l-214 214c-8 8-18 12-30 12-12 0-21-4-29-12l-25-25c-9-8-12-18-12-29 0-12 4-22 12-30l159-159-159-160c-9-8-12-18-12-29 0-12 4-22 12-30l25-25c8-8 18-12 29-12 12 0 21 4 29 12l214 214c9 8 12 18 12 30 1 11-3 21-11 29z"/>
<glyph glyph-name="left" unicode="&#124;" d="M95 254c0-11 4-21 12-30l214-213c8-9 18-12 29-12 12 0 21 4 29 12l25 24c9 9 12 19 12 30 0 12-4 22-12 30l-159 159 159 159c9 9 12 19 12 30 0 12-4 22-12 30l-25 24c-7 9-17 13-29 13-12 0-21-4-29-13l-214-213c-8-8-12-18-12-30z"/>
<glyph glyph-name="page-left" unicode="&#125;" d="M364 1c5 0 9 1 12 5l26 25c3 4 5 8 5 12 0 5-2 9-5 12l-202 201 202 202c3 3 5 7 5 11 0 5-2 9-5 12l-26 26c-3 3-7 5-12 5-4 0-8-2-12-5l-238-239c-4-3-5-7-5-12 0-4 1-8 5-12l238-238c4-4 8-5 12-5z"/>
<glyph glyph-name="page-right" unicode="&#126;" d="M161 6l239 238c3 4 5 8 5 12 0 5-2 9-5 12l-239 239c-3 3-7 5-12 5-4 0-8-2-12-5l-25-26c-4-3-5-7-5-12 0-4 1-8 5-11l201-202-202-201c-3-4-5-8-5-12 0-5 2-8 5-12l26-25c4-4 7-6 12-6 5 1 9 2 12 6z"/>
<glyph glyph-name="close" unicode="&#57344;" d="M511 461l-51 51-204-205-205 205-51-51 205-205-205-204 51-51 205 204 204-204 51 51-204 204z"/>
<glyph glyph-name="mic-exit" unicode="&#57345;" d="M399 332l-21 0c-1 0-2 0-3-1l133 134-40 39-136-136 0 67c0 43-35 77-77 77-42 0-76-34-76-77l0-178c0-12 3-24 8-34l-27-27c-10 17-16 37-16 57l0 69c0 6-4 10-10 10l-21 0c-6 0-11-4-11-10l0-56c0-1 0-2 0-2 0-3 0-5 0-8 0-33 11-64 29-89l-123-123 39-40 124 124c19-12 41-21 64-24l0-62-46 0c-6 0-10-5-10-11l0-20c0-6 4-10 10-10l132 0c6 0 11 4 11 10l0 20c0 6-5 11-11 11l-45 0 0 62c75 10 132 75 132 152 0 3 0 5 0 8 0 0 0 1 0 2l0 56 1 0c0 6-4 10-10 10z m-31-38l0-41c0-61-51-110-112-110-20 0-39 5-56 15l28 27c8-3 17-5 27-5 42 0 77 34 77 76l0 33 37 37c0-1-1-3-1-4z"/>
<glyph glyph-name="more-info" unicode="&#97;" d="M488 223l-199 0 0-199-66 0 0 199-199 0 0 66 198 0 0 199 67 0 0-198 199 0z"/>
<glyph glyph-name="anuncio" unicode="&#101;" d="M462 360c-4 11-10 19-16 26l-104 103c-6 7-15 12-25 16-11 5-20 7-29 7l-213 0c-9 0-17-3-23-9-6-7-9-14-9-23l0-448c0-8 3-16 9-22 6-7 14-10 23-10l362 0c9 0 16 3 23 10 6 6 9 13 9 22l0 299c0 9-2 19-7 29z m-164 107c7-2 11-5 14-8l104-104c3-2 5-7 7-13l-125 0z m128-424l-341 0 0 426 171 0 0-138c0-9 3-16 9-23 6-6 14-9 23-9l138 0 0-256z m-53 128l-235 0c-3 0-5-1-7-3-2-2-3-5-3-8l0-21c0-3 1-6 3-7 2-3 4-4 7-4l235 0c3 0 6 1 7 4 3 2 4 4 4 7l0 21c0 3-1 6-4 8-1 2-4 3-7 3z m-242 82c-2-2-3-4-3-7l0-22c0-3 1-5 3-7 2-2 4-3 7-3l235 0c3 0 6 1 7 3 3 2 4 4 4 7l0 22c0 3-1 5-4 7-2 2-4 3-7 3l-235 0c-3 0-5-1-7-3z"/>
<glyph glyph-name="descargar" unicode="&#102;" d="M232 24l-227 0 0 472 253 0 120-117 0-73-49 0 0 52-92 89-180 0 0-373 175 0z m209 146l0 97-162 0 0-97-57 0 138-154 146 154z"/>
<glyph glyph-name="facebook-text" unicode="&#103;" d="M281 273c-8 1-14-1-20-8l0 41-20-2 0-96 20 0 0 6c3-2 5-5 9-6 11-4 27-1 33 15 3 10 3 21 0 31-3 12-10 18-22 19z m3-41c-1-7-6-10-12-10-1 1-3 1-4 1-5 3-6 8-7 10 0 5 0 14 2 19 2 3 5 5 9 5 6 0 11-3 12-9 1-5 1-11 0-16z m69 40c-7 2-14 2-21 0-11-3-18-10-20-20-1-6-1-12-1-18 1-14 9-24 22-27 0 0 1 0 1 0 0 0 1 0 1 0 0 0 1 0 1 0 0 0 1 0 2 0 3 0 6-1 9 0 0 0 0 0 0 0 13 0 24 9 27 22 1 7 1 14 0 21-3 12-9 19-21 22z m1-39c0-1 0-1 0-2-2-6-6-9-12-9-6 1-10 4-11 11 0 4 0 9 0 13 1 7 5 12 12 11 6 0 10-3 11-8 1-6 0-15 0-16z m-306 39l-15 0 0 10c1 9 16 7 16 7l0 16c0 0-30 7-35-16 0 0 0 0 0 0-2-3-1-16-1-17l-13 0 0-17 13 0 0-47 20 0 0 47 15 0 1 17-1 0z m46-8c0 0 0 1-1 1 0 0 0 0 0 0-4 5-6 6-10 7-14 4-27-3-31-17-3-8-3-17-1-26 3-19 17-25 32-22 4 1 8 4 11 8 0 0 0 1 1 1l0-8 19 0 0 64-20 0z m-2-32c0-6-5-10-11-10-6 1-9 4-11 9-1 8 1 18 1 19 1 5 5 8 11 7 5 0 10-3 10-9 1-5 1-11 0-16z m79-20c-1 4-2 7-3 10l0 3c0 0-24-11-28 10 0 4 0 8 0 11 1 7 5 11 12 11 2 0 4 0 6 0 3 0 6-2 9-2 1 3 2 6 3 10 1 1 1 1 1 1l0 2c0 1 0 1 0 1-1 1-2 1-3 2-1 0-1 0-2 0-1 0-1 0-1 0-6 2-13 2-19 2-14-2-23-10-26-23-1-7-1-14 0-22 3-10 9-17 20-20 6-2 13-2 20-1 3 0 8 2 10 3l2 0z m63 25c0 5 0 9-1 14-1 12-9 19-21 21-4 1-9 1-14 1-12-2-22-9-24-21-1-7-1-15 0-22 2-11 7-18 16-21 0 0 0 0 0 0 4-1 24-6 42 3l0 2c-1 4-2 7-3 11l0 0c0 0-1 0-1 0-1-1-2-1-2-1-1 0-1 0-1 0-2-1-6-2-10-2-4-1-7-1-11 0-6 1-10 3-10 11l4 0c11 0 22 0 33 0 0 0 1 0 1 0 0 0 2 0 2 0 0 0 0 0 0 0z m-18 9l-22 0c0 5 0 9 4 11 4 3 9 3 13 1 4-3 5-7 5-12z m295 25l-21 0-19-29 0 64-20-2 0-96 20 0 0 29 19-29 21 0-20 32z m-88 1c-8 2-15 2-22 0-10-3-17-10-20-20-1-6-1-12-1-18 1-14 9-24 23-27 0 0 0 0 0 0 1 0 1 0 2 0 0 0 0 0 0 0 1 0 1 0 2 0 3 0 6-1 9 0 0 0 0 0 0 0 14 0 24 9 27 22 2 7 2 14 0 21-2 12-9 19-20 22z m1-39c0-1-1-1-1-2-1-6-5-9-11-9-6 1-11 4-11 11 0 4 0 9 0 13 1 7 5 12 12 11 5 0 9-3 11-8 1-6 0-15 0-16z"/>
<glyph glyph-name="franquicias" unicode="&#104;" d="M253 443c-60 0-109-49-109-109 0-61 49-110 109-110 61 0 110 49 110 110 0 60-49 109-110 109z m0-182c-40 0-73 32-73 73 0 41 33 73 73 73 41 0 73-32 73-73 0-41-34-73-73-73z m175 28c-48 0-86-39-86-86 0-48 38-86 86-86 47 0 85 38 85 86 0 47-38 86-85 86z m0-142c-31 0-56 26-56 56 0 30 25 56 56 56 30 0 55-26 55-56 0-30-23-56-55-56z m-170 39c-33 0-60-26-60-61 0-34 25-60 60-60 34 0 60 26 60 60 0 35-26 61-60 61z m0-99c-22 0-39 17-39 38 0 22 17 39 39 39 21 0 38-17 38-39 3-21-17-38-38-38z m-170 202c-47 0-86-39-86-86 0-48 39-86 86-86 47 0 86 38 86 86 0 47-39 86-86 86z m0-142c-30 0-56 26-56 56 0 30 26 56 56 56 30 0 56-26 56-56 0-30-26-56-56-56z"/>
<glyph glyph-name="google-plus" unicode="&#105;" d="M455 285l0 57-41 0 0-57-57 0 0-41 57 0 0-57 41 0 0 57 56 0 0 41z m-293 4l0-65 88 0c-10-43-43-65-88-65-52 0-95 44-95 97 0 53 43 98 95 98 26 0 47-8 63-24l46 47c-27 27-65 42-109 42-89 0-162-73-162-163 0-90 73-163 162-163 80 0 142 48 154 131 2 10 3 21 3 32 0 12-1 23-3 33z"/>
<glyph glyph-name="pin-off" unicode="&#115;" d="M256 485c70 0 129-57 129-128 0-50-72-197-129-301-58 105-129 251-129 301 0 71 58 128 129 128m0 27c-87 0-156-70-156-155 0-86 156-356 156-356 0 0 156 270 156 356 0 85-71 155-156 155z"/>
<glyph glyph-name="pin-on" unicode="&#67;" d="M256 512c-87 0-156-70-156-155 0-86 156-356 156-356 0 0 156 270 156 356 0 85-71 155-156 155z"/>
<glyph glyph-name="llegar" unicode="&#77;" d="M469 253l-99 98c-2 3-5 4-8 4-4 0-6-1-9-4-2-2-4-5-4-8l0-49-8 0c-57 0-100-10-129-30l0 125 49 0c3 0 6 1 9 3 2 3 3 6 3 9 0 3-1 6-3 9l-99 98c-3 3-6 4-9 4-3 0-6-1-8-4l-99-98c-3-3-4-6-4-9 0-3 1-6 4-8 2-3 5-4 8-4l50 0 0-388 99 0 0 137c1 4 2 7 4 10 4 8 9 14 16 20 6 5 13 10 20 13 7 4 16 6 25 8 10 2 20 3 30 4 10 1 21 2 34 2l8 0 0-50c0-3 1-6 4-8 2-3 5-4 8-4 4 0 6 1 9 4l98 98c3 3 4 6 4 9 1 3-1 6-3 9z"/>
<glyph glyph-name="print" unicode="&#84;" d="M478 319l-64 0 0 59-99 102-220 0 0-158-64 0-31-36 0-159 95 0 0-94 319 0 0 94 97 0 0 159z m-414-64l-33 0 0 31 30 0 0-31z m320-97l0-95-256 0 0 159 256 0z m0 161l-256 0 0 128 158 0 0-97 98 0z m92-151l-31 0 0 49 31 0z m-325 18l209 0 0-36-209 0z m0-72l209 0 0-35-209 0z"/>
<glyph glyph-name="resena" unicode="&#85;" d="M222 1l14 0 0 199c-17 6-28 23-28 39 0 26 20 45 45 45 25 0 45-19 45-45 0-19-11-33-28-39l0-199 14 0 135 244-110 126-107 0-109-126z m-76 418l31 0 0-22 152 0 0 22 33 0 40 93-295 0z"/>
<glyph glyph-name="reserva" unicode="&#37;" d="M375 397c19 0 34 15 34 34l0 35c0 19-15 34-34 34-18 0-34-15-34-34l0-35c0-19 16-34 34-34z m120 44l-68 0 0-17c0-28-23-52-51-52-29 0-52 24-52 52l0 17-137 0 0-17c0-28-23-52-51-52-29 0-52 24-52 52l0 17-68 1 0-429 445 0 35 0z m-34-394l-411 0 0 274 411 0 0-274z m-326 350c19 0 34 15 34 34l0 35c0 19-15 34-34 34-18 0-34-15-34-34l0-35c0-19 16-34 34-34z m32-159l0 0 0-135 39 0 0 170-34 0-45-21 7-29z m156-138c43 0 64 37 64 89 0 47-18 87-63 87-44 0-65-39-65-88 0-48 20-88 64-88z m0 146c16 0 25-20 25-57 0-39-9-58-24-58-16 0-25 18-25 57 0 40 10 58 24 58z"/>
<glyph glyph-name="menu" unicode="&#41;" d="M374 184c8-7 8-17 0-24-7-8-17-8-24 0l-91 90c-9-10-27-10-36 0l-42 42c-29 29-44 66-44 107 0 3 3 8 5 8 2 2 7 0 10-3z m-51 225c2 3 10 3 12 0 3-2 3-10 0-12l-44-44c-2-3-2-10 0-12 3-3 10-3 13 0l44 44c2 2 9 2 12 0 2-3 2-10 0-13l-44-44c-3-2-3-10 0-12 2-2 10-2 12 0l44 44c3 2 10 2 12 0 3-2 3-10 0-12l-56-57c-10-9-27-9-37 0l-24 25c-10 10-10 27 0 37z m-164-249c-7-8-17-8-24 0-8 7-8 17 0 24l66 66 9-10c5-5 10-7 18-9z m259-132l-310 0c-8 0-12 5-12 12 0 7 4 12 12 12l310 0c15 0 25 12 25 25l0 410c0 15-12 25-25 25l-310 0c-22 2-39-15-39-37l0-435c0-22 17-39 39-39l310 0c15 0 25 12 25 24l0 13-25 0 0-10z"/>
<glyph glyph-name="sms" unicode="&#57348;" d="M256 478c-141 0-256-90-256-201 0-53 26-100 68-136-2-35-9-82-35-106 49 0 99 32 129 55 29-9 61-14 94-14 141 0 255 90 255 201 0 111-114 201-255 201z"/>
<glyph glyph-name="cat-autopartes" unicode="&#113;" d="M452 256l-54-17c1 1 2 2 4 3 1 1 2 2 4 3l23 14c6 3 9 12 6 19-3 6-12 9-19 6l-24-14c-6-4-13-9-17-16-6-8-7-15-5-22 3-9 8-15 15-17 5-2 9-2 12-2 2 0 7 0 10 2l34 12 0-113c0-1-1-3-3-3l-37 0c-2 0-4 2-4 3l0 9 24 13c3 1 5 4 6 8 2 3 1 7 0 10-4 7-12 10-19 6l-27-15-244 0-27 15c-6 3-15 0-18-6-4-7-1-15 6-19l23-12 0-9c0-1-2-3-3-3l-40 0c-1 0-3 2-3 3l0 112 33-13 10-1c4 0 7 0 11 3 7 2 13 8 15 17 3 7 1 17-4 22-5 7-11 11-18 16l-24 14c-3 1-7 2-10 0-4-1-7-3-8-6-4-7-1-16 6-19l24-14c2-1 5-4 7-6l-53 17c-3 2-8 2-12-1-3-2-5-5-5-10l0-135c0-17 14-31 31-31l38 0c17 0 31 14 31 31l0 3 221 0 0-3c0-17 14-31 30-31l38 0c17 0 31 14 31 31l0 135 0 3c-3 5-8 8-15 8z m-47 32c6 0 12 6 12 13 0 7-4 15-12 15-97 12-200 12-297 0-7 0-13-7-13-15 0-7 7-13 16-13 97 12 196 12 293 0z m-92-42l-113 0c-14 0-25-4-34-13l-12-14c-5-6-5-13 0-19 4-3 7-5 10-5 3 0 6 2 9 5l12 12c3 3 10 6 14 6l114 0c4 0 11-1 14-6l12-12c4-4 7-4 10-4 2 0 5 0 9 4 6 6 6 13 0 19l-11 11c-7 10-21 16-34 16z m196 95l-1 1c-4 7-11 11-21 14-8 2-18 0-25-5-3-1-5-4-7-8-1-3-1-7 1-10 2-3 4-6 8-7 4-1 8-1 11 1 2 1 6 1 8 1 0 0 0 0 1-1 0-1 0-2 0-2-1-2-3-4-6-5l-20-11c-11 36-33 70-62 97-5 5-11 9-18 11-32 12-69 17-123 17-45 0-86-6-122-17l-2-1c-3-2-6-4-9-6-2-1-3-2-5-4-29-27-51-61-62-98l-20 12c-4 2-6 5-6 6 1 1 1 2 1 2 3 0 6 0 7-1l1-1c6-3 15 0 19 6 3 7 0 16-6 19-8 5-17 6-26 4-9-2-16-7-21-14-4-6-5-14-3-22 2-10 10-18 19-23l35-19 0-1 3-2c1-1 3-1 4-1 3 0 5 1 7 2 4 2 6 6 6 9 7 37 27 72 58 100l3 2c3 3 4 3 6 3l1 0c34 11 72 16 114 16 42 0 81-5 113-15 2-1 3-2 5-3 1-1 3-2 5-3 27-26 48-61 57-99 0-7 6-11 13-11l2 0c3 0 5 1 6 3l35 19c16 10 23 29 16 45z"/>
<glyph glyph-name="cat-construccion" unicode="&#121;" d="M459 439c0 12-5 25-13 33-9 9-20 13-33 13-13 0-24-4-33-13l-92-92c0-1 0-1-1-1 0 0-1-1-1-1-11-11-16-28-12-43l-15-14c-5-5-8-12-8-19l0-48-2-2-34 33c-7 7-14 10-24 10-17 0-30-11-35-29l-97-196-1-4c-3-14-1-24 5-30 5-8 15-13 25-13 4 0 7 0 14 3l218 83c15 2 25 10 27 23 2 11-2 23-11 32l-50 51 11 10c6 6 8 14 8 19l0 48 8 8c3-1 5-1 8-1 13 0 23 6 30 10l1 2c2 2 4 4 5 6l89 89c8 8 13 21 13 33z m-105-59c-4 4-10 8-15 10l61 61c4 4 9 6 13 6 6 0 10-1 13-5 4-3 7-9 7-13 0-4-2-9-7-13l-62-63c-2 7-6 12-10 17z m-268-328l0 1c-1 0-1 2 0 4l98 199 0 2c3 5 7 9 8 9 1 0 3-2 4-3l32-33-24-24c-6-4-9-10-9-17-1-7 2-14 8-20 5-6 13-8 18-8 3 0 6 1 9 1 0 0 0 1 1 1 0 0 0 0 1 0 2 1 4 2 6 3l29 28 50-50c1-2 3-5 4-7-1-1-3-2-7-3l-223-82c-3-2-4-1-5-1z"/>
<glyph glyph-name="cat-electronica" unicode="&#74;" d="M232 258c-6 0-9-1-15-1l-3-2 3-15-3 13-4-2c-37-11-71-37-89-71l-2-4 18-9 2 4c16 30 44 53 78 62l4 2 3 0c4 0 8 2 13 2l3 0-3 21-5 0z m207-160l-15 0 0 10c0 6-3 9-9 9l-5 0 0 275c0 48-41 89-89 89-27 0-48-9-66-26-18-18-27-40-27-65l0-78c-5-2-7-6-7-9l0-22c-72-12-131-69-143-143-11-10-16-24-16-41 0-34 29-62 62-62 13 0 25 3 34 11l104 0c27 0 48 21 48 48l0 84 7 0c5 0 9 3 9 9l0 37c0 5-3 9-9 9l-7 0 0 3c0 22-14 40-32 45l0 22c0 5-4 9-7 9l0 80c0 13 5 25 14 34 9 9 21 14 34 14 27 0 48-21 48-46l0-275-5 0c-6 0-9-3-9-9l0-12-15 0c-5 0-9-4-9-9l0-32c0-6 4-9 9-9l102 0c5 0 9 3 9 9l0 32c-2 3-5 9-10 9z m-79-20l68 0 0-12-82 0 0 12z m11 20l32 0z m-130 187l0 9 17 0 0-9-9 0c-3 0-5 0-8 0z m49-48l0-141-103 0c0 2 0 2 0 3 0 34-29 63-62 63-4 0-9 0-13-2-2 0-2 0-3-2-2 0-4-2-8-2 18 59 72 100 132 107 6 0 11 2 16 2l13 0c16 1 28-12 28-28z m-108-164c0 0 0 2 1 2l102 0c-5-7-12-11-21-11l-84 0c0 4 2 7 2 9z m-82 61c3 1 5 3 7 5 0 0 0 0 2 0 1 0 3 2 7 2l2 0c3 0 5 0 9 0 23 0 42-20 42-43 0-3 0-7-1-9l0-2c0-2-2-5-2-7 0 0 0-2-2-2-2-2-2-3-4-5l-1-2c-2-2-4-3-6-5-7-6-16-9-27-9-23 0-42 19-42 42-2 13 5 26 16 35z m25-65c16 0 30 13 30 31 0 16-13 30-30 30-18 0-31-16-31-32 0-16 15-29 31-29z m0 40c5 0 10-6 10-11 0-5-5-9-10-9-6 0-11 3-11 9 0 5 5 11 11 11z"/>
<glyph glyph-name="cat-herramientas" unicode="&#76;" d="M142 278c-4 4-8 6-13 6-6 0-9-2-13-6-3-4-5-7-5-13 0-5 2-9 5-12l44-40c3-4 7-6 12-6 6 0 9 2 13 6 7 7 7 18 0 23z m36-56c-4-2-7-2-11 0l-43 40c-2 2-2 4-2 5 0 2 0 4 2 6 1 2 3 2 5 2 2 0 4 0 6-2l43-40c2-4 2-9 0-11z m-4 89c-3 3-7 5-12 5-6 0-9-2-13-5-7-8-7-18 0-24l43-40c4-3 7-5 13-5 5 0 9 2 13 5 3 4 5 7 5 13 0 6-2 9-5 13z m38-53c0-2 0-4-2-5-3-2-7-2-11 0l-43 40c-4 3-4 7 0 9 2 1 4 1 6 1 1 0 3 0 5-1l43-40c2 0 2-2 2-4z m-16 89c-6 0-9-2-13-6-3-3-5-7-5-12 0-6 2-9 5-13l44-40c3-4 7-6 12-6 6 0 9 2 13 6 4 4 6 7 6 13 0 5-2 9-6 12l-43 40c-4 4-10 6-13 6z m49-63c-4-2-8-2-11 0l-44 39c-1 2-1 4-1 6 0 2 0 3 1 5 2 2 4 2 6 2 2 0 4 0 5-2l44-40c2-1 2-3 2-5 0-2-2-4-2-5z m188-109l-4 4c-9 7-18 10-25 10-11 0-22-5-38-19-11 5-35 21-49 43l23 22c2 1 4 3 4 7 0 3-2 5-4 7l-32 29c2 5 5 11 9 16l5 6c4 3 6 7 8 11 3 5 3 9 1 12 0 2-1 2-3 4-2 2-4 4-6 5l-4 4 20 20c6 5 7 11 7 18 0 4-1 9-3 13l0 18 69 63c3 4 5 7 5 13 0 5-2 9-5 12-8 8-20 8-28 0l-65-61-27 0c-11 5-22 2-29-6l-21-20-2 0c-9 9-27 9-36 0l-134-122c-7-8-9-17-5-26-9-11-15-25-15-41 0-17 7-31 20-42 13-11 29-18 47-18 15 0 29 6 40 13 4-2 9-4 13-4 3-2 9-2 11 2 10 9 19 14 28 14 31 0 55-54 60-106 0-2 0-4 2-4l2-2c31-36 63-56 90-56 11 0 20 4 29 9 18 15 29 25 38 34 4 4 7 9 13 13 5 6 18 20 20 42 2 21-7 41-29 63z m-166 210c1-2 1-2 3-2 2 0 4 0 4 2l23 21 9-9-23-21c-2-2-2-6 0-7 2-2 2-2 4-2 1 0 3 0 3 2l24 21 9-9-24-21c-2-2-2-6 0-8 2-1 2-1 4-1 2 0 4 0 4 1l23 24c0-2 2-4 2-6 0-1-2-5-4-7l-23-21-54 50 23 22c4 2 6 4 9 4 4 0 6-2 7-4l-23-22c-2-2-2-5 0-7z m133 90l-65-60-5 6 65 60 2 2c1 0 1 0 1-2 4-2 4-6 2-6z m-117-215c-2-9 0-18 2-27 9-38 47-67 66-80l-61-58c-7 49-33 100-71 103z m23-31c-2 4-2 7-3 9-2 6-2 11-2 18l16-16z m0 91c-9-7-25-22-69-67-27-29-54-56-63-67-4-2-5-2-7 0l-80 74c-1 2-1 2-1 4 0 2 0 2 1 4l134 122c2 2 2 2 4 2 2 0 3 0 3-2z m-163-138c-18-11-43-7-57 6-17 14-18 36-6 54z m299-69c-2-14-11-25-15-29-5-3-9-9-12-12-9-9-18-18-35-33-14-11-38-3-63 17l108 99c13-14 19-29 17-42z m-139-45c-4 4-6 6-9 9l79 74c15 15 24 20 31 20 2 0 3 0 5-2z"/>
<glyph glyph-name="cat-hogar" unicode="&#90;" d="M432 296c-7 2-14-3-16-10l-35-206-68 0 11 140c0 3-2 7-4 10-2 4-7 4-10 4l-112 0c-3 0-7-2-10-6-2-3-4-7-4-10l11-140-67 0-34 206c-2 7-9 12-16 11-4 0-7-2-9-6-2-3-3-7-2-10l37-218c2-7 7-10 14-10l94 0c3 0 7 1 10 5 4 3 4 7 4 10l-11 140 82 0-10-140c0-3 2-7 3-10 2-4 7-4 11-4l94 0c7 0 12 6 14 11l33 218c0 3 0 7-2 10-1 2-5 4-8 5z m40 30l-82 51 0 69c0 7-7 14-14 14l-47 0c-4 0-7-2-11-3-3-2-3-7-3-11l0-21-52 34c-4 3-11 3-14 0l-209-131c-7-4-9-13-4-20 2-3 7-6 12-6 2 0 6 0 7 1l201 126 66-42c4-2 9-3 14 0 4 2 7 7 7 12l0 33 21 0 0-63c0-5 2-8 7-12l87-54c7-3 16-2 19 5 4 4 2 13-5 18z"/>
<glyph glyph-name="cat-industrial" unicode="&#57346;" d="M179 378l213 0 0-25-213 0z m0-51l213 0 0-25-213 0z m0-51l213 0 0-26-213 0z m0-54l213 0 0-25-213 0z m0-51l213 0 0-26-213 0z m-133 105l-33 0 0-26 33 0 0-18 30-18 0 97-30-20z m358-198l-20 20-22 0 0 22-154 0 0-22-21 0-20-20 0-14-20 0 0-25 277 0 0 25-20 0z m35 300l-21 0 0-233 21 0 48 38 0 160z m-286 0l-14 0c-20 0-37-15-37-37l0-158c0-20 16-37 37-37l14 0c0-1 0 232 0 232z m194 52l-42 51-97 0 0-77 139 0z m-79 0l-26 0 0 25 26 0z"/>
<glyph glyph-name="cat-jardineria" unicode="&#57349;" d="M503 407c-4 3-81 33-142-12-17-12-29-32-33-55-2-18 0-32 8-45 0 0 0 0 2-2-18-24-34-53-42-89-9 34-23 61-41 85 2 2 6 6 8 8 12 17 16 39 12 66-6 32-22 63-49 79-96 69-212 23-218 20-4-2-6-6-8-12 0-4 2-10 6-12 0 0 43-25 59-53 6-10 10-23 17-35 8-22 16-44 36-61 21-14 45-22 70-22 2 0 4 0 6 0 14 0 26 4 36 10 29-39 45-83 47-161-14-2-28-10-41-20l-40-41c-4-4-4-8-2-15 2-4 6-8 12-8l171 0c6 0 10 4 12 8 3 5 0 11-2 15l-40 41c-13 12-27 18-41 20 4 79 20 124 51 163 8-4 18-6 28-6 17 0 33 6 47 16 15 10 21 27 27 41 2 8 6 16 10 22 8 15 30 29 36 33 4 2 6 6 6 12-2 5-4 8-8 10z m-265-93c-10-12-26-21-44-23-21-2-43 6-60 19-14 10-20 28-28 49-4 14-10 26-16 40-13 21-31 37-47 47 36 10 108 21 167-22 20-15 34-39 39-64 2-18-3-34-11-46z m208 51c-4-8-8-19-12-27-4-12-8-24-17-28-16-12-36-14-50-6 20 32 46 45 46 45 4 2 4 6 4 8-2 4-6 4-8 4-2 0-28-14-51-49-4 6-6 16-4 26 2 15 13 31 23 39 20 14 43 18 63 18 12 0 22-2 33-4-13-6-21-16-27-26z m-324 59c-4 2-6 0-8-4-2-2 0-6 2-6 0 0 51-23 90-88 2-2 4-4 6-4 2 0 2 0 4 0 2 2 4 6 2 8-41 72-94 94-96 94z"/>
<glyph glyph-name="cat-juguetes" unicode="&#57350;" d="M403 212c-8 0-17-2-24-4l22 92c36 2 62 6 60 42-4 54-45 50-82 22-24-20-87-3-82-35 4-21 30-32 74-31l-23-92c-41 57-87 89-189 100 0 2-1 4-3 6l6 47c2 0 2 0 5 0 2 0 4 0 4 0 15 4 21 28 28 56 4 14 9 40 15 42l28-9c3-2 5-4 7-7l26-15c9-4 19-2 24 9l2 4c2 11-4 20-15 22l-30 4c-5 0-9 0-11 0l-26 9c0 9-7 15-18 15l-30-4c-4 0-6-2-11-2-4 0-8 0-13 0-6 0-19-3-21-24-2-22 6-78 21-91l-8-52c-7-2-13-7-13-15l-13-78c-53-1-98-46-98-100 0-54 44-100 100-100 56 0 99 46 99 100 0 43-27 80-67 94l9 54c97-12 135-42 173-97-12-16-19-35-19-55 0-52 43-93 93-93 52 0 93 41 93 93 0 52-43 93-93 93z m-220-63l-50-16c-1 2-3 4-5 6l31 43c11-8 20-20 24-33z m3-24c0-7-1-13-3-19l-49 16c0 1 0 2 0 3 0 1 0 2 0 4l50 16c2-6 3-13 2-20z m-27-55l-30 42c2 1 3 3 4 5l49-16c-5-12-13-23-23-31z m-111 31l49 16c1-3 3-5 5-7l-30-41c-11 8-19 19-24 32z m-5 24c0 7 2 14 4 20l49-16c0-1-1-2-1-4 0-1 1-2 1-4l-49-16c-2 6-4 13-4 20z m29 57l31-42c-2-2-4-4-5-6l-50 16c5 13 13 24 24 32z m41-38c-3 0-5-1-7-1l-30 42c10 7 23 11 37 11l0-52z m-7-36c2-1 4-2 7-2l0-52c-14 0-27 5-38 12z m11-2c3 1 6 2 8 3l31-42c-11-8-25-13-39-13z m8 36c-3 1-5 2-8 2l0 52c14 0 28-4 38-11z m343-23c0-7-1-14-3-20l-43 14c0 1 0 2 0 3 0 2 0 4-1 5l45 15c2-6 2-11 2-17z m-26-52l-25 36c2 2 3 4 4 6l43-14c-5-11-12-21-22-28z m-100 29l43 13c1-2 3-5 5-7l-26-35c-10 7-17 17-22 29z m-4 23c0 5 1 11 2 16l44-15c0-1 0-2 0-4 0-1 0-1 0-2l-43-14c-2 6-3 12-3 19z m127 21l-45-14c-1 2-2 3-4 5l28 39c9-8 17-18 21-30z m-53-6c-2 1-4 1-7 2l0 47c13 0 25-4 35-11z m-11 2c-3-1-5-1-7-2l-28 38c10 7 22 11 35 11z m-38 33l28-38c-2-2-4-4-5-6l-44 14c4 12 11 23 21 30z m30-69c2-1 5-2 8-3l0-43c-12 0-24 4-34 10z m12-3c3 1 6 2 8 3l26-36c-10-6-21-10-34-10l0 43z"/>
<glyph glyph-name="cat-limpieza" unicode="&#57351;" d="M317 413l27 0 0 25-27 0z m86-12c6 0 12-6 12-12 0-5-6-11-12-11-6 0-12 6-12 11 0 6 4 12 12 12z m0 72c6 0 12-6 12-12 0-5-6-11-12-11-6 0-12 6-12 11 0 6 4 12 12 12z m0-37c6 0 12-6 12-11 0-6-6-12-12-12-6 0-12 6-12 12 0 7 4 11 12 11z m43-44c7 0 15-6 15-16 0-8-6-16-15-16-8 0-16 6-16 16 2 10 8 16 16 16z m0 97c7 0 15-6 15-16 0-8-6-15-15-15-8 0-16 6-16 15 2 8 8 16 16 16z m0-49c7 0 15-6 15-15 0-8-6-16-15-16-8 0-16 6-16 16 2 9 8 15 16 15z m-152-2l-128 0c-22 0-31 2-45-17l-39-57 8-8 107 0c19 37 60 55 97 57z m-142-111l0-27 41 0 0 27z m-82-286c0 68 4 117 14 156 8 37 22 66 39 93l0 37-39 0c-4 0-8 2-10 4l-19 20c-6 6-6 13-2 19l46 68c20 27 37 29 68 29l185 0c8 0 16-6 16-15l0-55c0-7-6-15-16-15l-47 0c-7 0-13 0-19-2 2-27 16-57 33-78 12-15-12-33-23-17-20 25-33 56-37 87-16-8-29-18-35-33l0-68c0-45 0-57 35-80 37-23 46-43 46-85l0-67c0-7-6-15-15-15l-206 0c-8 2-14 10-14 17z m123 230l-47 0c-15-23-27-49-33-82-10-33-14-76-14-134l173 0 0 51c0 31-5 42-31 60-48 33-48 56-48 105z"/>
<glyph glyph-name="cat-moda" unicode="&#57352;" d="M474 102c-5 12-19 20-31 27l-23 10c-14 6-27 11-40 16-8 3-16 6-23 9-12 4-23 8-34 13-31 15-104 87-147 164-6 9-10 18-14 27-4 7-7 14-10 19-14 34-28 65-55 65l-2 0c-4 0-20-4-34-21-14-16-29-47-21-104 0-1 0-5 2-10l27-242c0-6 5-14 16-14l25 0c6 0 10 4 13 7l3 3 11 160c24-24 59-64 77-109 3-20 18-56 56-61 13-2 29-2 51-2 28 0 82 2 121 11 8 1 29 9 32 26l0 3z m-379 17l-18 159c6-4 12-9 16-13 4-3 7-5 10-7z m-1 187c-2 2-4 5-7 7-4 3-8 7-10 10l-3 3c-3 2-4 5-4 5-13 80 27 91 27 91 5-1 16-22 24-37l5-10c7-15 15-32 25-50 45-80 120-157 161-177 19-8 38-16 58-23 18-6 36-14 55-22 2-1 4-2 6-3 0 0 0 0 0 0l-3 0c-36-9-90-10-112-10-18 0-36 0-46 2-25 3-28 35-28 35l0 6c-13 35-45 91-121 155l-4 3c-7 5-13 9-18 12z"/>
<glyph glyph-name="cat-oficina" unicode="&#57353;" d="M424 424l-336 0c-14 0-25-11-25-25l0-207c0-13 10-27 27-27l334 0c13 0 27 10 27 27l0 207c0 14-13 25-27 25z m-7-226l-323 0 0 195 323 0 0-195z m32 270l-386 0c-26 0-48-21-48-48l0-249c0-26 22-47 48-47l139 0 0-21-25 0c-20 0-37-15-37-33 0-18 17-33 37-33l157 0c21 0 38 15 38 33 0 18-18 33-38 33l-25 0 0 21 139 0c27 0 48 21 48 47l0 249c0 27-21 48-47 48z m16-297c0-8-8-16-16-16l-170 0 0-84-46 0 0 84-170 0c-9 0-17 8-17 16l0 249c0 9 8 17 17 17l386 0c8 0 16-8 16-17z"/>
<glyph glyph-name="cat-muebles" unicode="&#57354;" d="M492 309c-13 15-31 23-50 23-7 0-13-1-19-2 5 15 8 31 8 45 0 31-17 103-173 103-151 0-174-63-174-101 0-15 4-30 8-45-5 1-11 1-18 1-37 0-68-30-68-67 0-28 23-51 50-51 7 0 14 2 20 6 5-11 8-26 8-43l0-131c0-8 7-16 15-16l61 0c8 0 15 8 15 16l0 13c4 5 21 22 81 22 60 0 77-17 80-22l0-13c0-8 7-16 15-16l61 0c8 0 15 8 15 16l0 131c0 16 3 30 9 42 5-3 12-5 19-5 27 0 50 23 50 50 3 16-2 32-13 44z m-93-135l0-116-28 0-1 6c-8 17-31 45-110 45-105 0-111-48-111-49l0-2-32 0 0 116c0 32-10 61-29 80-5 14-17 23-32 23-8 0-15-7-15-15 0-8 7-16 15-17-9 0-18 9-18 18 0 20 17 36 36 36 36 0 47-24 59-51l3-6c1-3 2-6 4-9 1-1 1-3 2-5-15-8-25-21-25-35l8-45c0-8 7-15 15-15l227 0c8 0 15 7 15 14l8 44 0 2c0 15-9 27-24 35 2 4 5 9 6 15 13 32 25 56 62 56 15 0 29-11 34-26-3 2-6 4-9 4-14 0-26-9-32-23-18-19-28-47-28-80z m60 73c6 0 11 3 14 8 0-1 0-2-1-3-2-4-7-6-13-6z m-301-82l-6 28c2 5 13 11 28 11 14 0 23-5 28-10 2-3 6-6 11-6 4 0 11 3 13 8 3 3 12 8 26 8 14 0 24-5 29-10 2-3 6-6 10-6 4 0 11 3 13 8 3 3 12 8 27 8 15 0 25-5 27-11l-6-27-200 0z m180 71c-15 0-28-4-39-10-10 6-23 10-39 10-15 0-28-4-39-10-10 6-24 10-39 10l-4 0c-2 5-6 13-9 21l-2 4c-7 16-15 35-29 50-1 2-2 5-3 7-1 4-2 7-2 10l-2 7c-6 16-10 31-10 43-1 5-2 19 10 34 14 16 48 36 127 36 128 0 141-50 141-71 0-14-5-32-11-48-1-3-2-7-3-10-1-3-1-6-2-8-14-14-25-33-32-54-3-8-6-16-9-21z m-37 45c0-8-7-15-15-15-9 0-16 7-16 15 0 9 7 16 16 16 8 0 15-7 15-16z m-28 53c0-8-6-15-15-15-8 0-15 7-15 15 0 9 7 15 15 15 9 0 15-6 15-15z m-25-53c0 9-7 16-15 16-9 0-16-7-16-16 0-8 7-15 16-15 8 0 15 7 15 15z m53 106c0 8-7 15-15 15-9 0-16-7-16-15 0-8 7-15 16-15 8 0 15 7 15 15z m-53 0c0-8-7-15-15-15-9 0-16 7-16 15 0 8 7 15 16 15 8 0 15-7 15-15z m-53 0c0-8-7-15-15-15-9 0-15 7-15 15 0 8 6 15 15 15 8 0 15-7 15-15z m158 0c0 8-6 15-15 15-8 0-15-7-15-15 0-8 7-15 15-15 9 0 15 7 15 15z m-131-53c0 9-6 15-15 15-8 0-15-6-15-15 0-8 7-15 15-15 9 0 15 7 15 15z m89 15c-8 0-15-6-15-15 0-8 7-15 15-15 8 0 15 7 15 15 0 8-7 15-15 15z"/>
<glyph glyph-name="map-user" unicode="&#57355;" d="M307 357c-9 7-25 14-51 14l-5 0c-27 0-42-7-51-14l-72-58 0-85c0-14 11-25 25-25 13 0 24 11 24 25l0 62 18 14 0-105-35-149c-5-15 6-31 22-35 2 0 5 0 7 0l4 0c14 0 25 9 30 22l33 137 34-137c4-13 15-22 29-22l4 0c3 0 5 0 7 0 16 4 27 20 23 35l-36 149 0 105 18-14 0-62c0-14 11-25 25-25 13 0 24 11 24 25l0 85z m-54 34c34 0 61 27 61 60 0 34-27 61-61 61-33 0-60-27-60-61 0-35 27-60 60-60z"/>
<glyph glyph-name="map-to-phone" unicode="&#57356;" d="M357 255l-118 102 0-63-218 0 0-79 218 0 0-57z m65 257l-232 0c-16 0-29-14-29-29l0-156 29 0 0 135 236 0 0-389-238 0 0 115-30 0 0-158c0-16 14-29 29-29l232 0c16 0 30 13 30 29l0 453c4 15-9 29-27 29z m-95-29l-45 0c-2 0-4 2-4 4 0 2 2 5 4 5l45 0c2 0 5-3 5-5 2-2 0-4-5-4z m9-451c0-4-2-7-7-7l-47 0c-4 0-7 3-7 7l0 9c0 5 3 7 7 7l47 0c5 0 7-2 7-7z"/>
<glyph glyph-name="map-switch" unicode="&#57357;" d="M414 161l0 136-140 0 0-136-77 0 149-160 152 160z m-176 190l77 0-150 161-151-161 83 0 0-135 141 0z"/>
<glyph glyph-name="map-road" unicode="&#57358;" d="M493 297l-197 197c-11 11-25 18-40 18-16 0-30-7-41-18l-197-197c-11-11-18-25-18-41 0-15 7-29 18-40l197-197c12-12 25-18 41-18 15 0 29 6 40 18l197 197c12 11 18 25 18 40 0 16-6 30-18 41z m-93-10l-78-45-16-11 0 37-43 0c-8 0-13-2-18-7-5-5-8-10-8-18l0-121-55 0 0 121c0 20 8 39 24 58 16 15 37 24 59 24l43 0 0 37 16-11 78-44 17-11z"/>
<glyph glyph-name="map-plus" unicode="&#57359;" d="M282 359l-50 0-3-76-76 0 0-51 76-2 0-77 51 0 2 77 77 0 0 50-77 3z m-26 153c-142 0-256-114-256-256 0-141 114-255 256-255 141 0 255 114 255 255 0 142-114 256-255 256z m0-435c-99 0-180 81-180 179 0 99 81 180 180 180 98 0 179-81 179-180 0-98-81-179-179-179z"/>
<glyph glyph-name="map-o" unicode="&#57360;" d="M256 512c-142 0-256-114-256-256 0-141 114-255 256-255 141 0 255 114 255 255 0 142-114 256-255 256z m0-435c-99 0-180 81-180 179 0 99 81 180 180 180 98 0 179-81 179-180 0-98-81-179-179-179z"/>
<glyph glyph-name="cat-vinos" unicode="&#57361;" d="M426 224c6 53-32 130-33 131l-3 6-108 0-4-6 0-2c-1-1-1-2-2-4-9-20-36-80-31-126 8-54 46-81 81-85l0-72-2-12c-2-3-17-14-37-20-18-4-26-11-26-21l1-1c3-10 12-12 43-12l64 0c30 0 41 1 41 13 0 6-3 13-26 21-18 5-31 14-36 18l0 85c35 5 72 32 78 87z m-129 116l81 0c9-19 30-68 28-105l-137 0c0 38 20 89 28 105z m42-181l-3 0c-27 0-56 17-65 54l132 0c-10-37-39-54-64-54z m-129 207c-7 9-13 17-15 23 0 0 0 0 0 1l2 0 0 122-74 0 0-122 1 0c-1-1-1-1-1-2-1-7-8-15-13-22l-2-2c-12-15-23-31-23-52l0-288c0-5 10-22 27-22l94 0c17 0 27 17 27 22l0 290c0 19-11 36-22 50z m-65 124l30 0 0-78-30 0z m-38-237l60 0 0-126-60 0z m106-223c0-1 0-1 0-1-1-1-4-4-5-4l-96 0c-1 0-4 2-5 4l0 76 82 0 0 170-82 0 0 37c0 15 9 28 19 39 8 11 15 21 19 32 1 2 1 4 2 7l27 0c0-3 1-5 2-7 4-11 10-21 18-31l3-5c9-12 17-22 17-35l0-282z"/>
<glyph glyph-name="cat-viajes" unicode="&#57362;" d="M482 257l19 59 9 20-59 0-47-41-78 7 32 140 4 20-59-10-7 0-17-23-40 0 0-31 20 0-22-32-47 0 0-28 27 0-18-25-106 2 0 0c-45 0-93-19-93-61 0-15 8-29 26-41 12-7 33-15 63-15l110 0 18-25-27 0 0-28 47 0 22-33-19 0 0-28 39 0 12-20 5-4 6 0 39-6 21-4-36 162 78 7 44-37 5-3 58-1z m-157-171l-12 2-91 134-4 8-123-2-4 0c-21 0-37 4-47 11-9 6-13 12-13 17 0 22 41 28 62 28l114-2 9 0 95 142 12 2-29-138-5-17 17 0 100-10 8 0 47 41 5 0-15-44 15-51-5 0-43 37-4 4-107-10-18 0z"/>
<glyph glyph-name="map-menu" unicode="&#57363;" d="M325 70c0-38-31-69-69-69-39 0-70 31-70 69 0 39 31 70 70 70 38 0 69-31 69-70z m0 186c0-38-31-69-69-69-39 0-70 31-70 69 0 39 31 70 70 70 38 0 69-31 69-70z m0 186c0-38-31-69-69-69-39 0-70 31-70 69 0 39 31 70 70 70 38 0 69-31 69-70z"/>
<glyph glyph-name="map-car" unicode="&#57364;" d="M500 260c-7 33-20 53-24 57 0 0-22 85-25 96-4 13-76 59-193 59-117 0-191-46-194-59-6-13-28-96-28-96-2-4-18-22-24-57-5-26-7-48-7-65 0-24 4-77 13-77 64 0 411 0 475 0 9 0 13 53 13 77 0 17-2 39-6 65z m-433 76c6 48 13 59 15 61 0 7 53 53 174 53 121 0 173-46 173-53 0-2 7-13 16-61 0-6 0-17-11-17-3 0-95 13-178 13-84 0-176-13-178-13-11 0-11 13-11 17z m20-148c-16 0-27 11-27 26 0 16 11 27 27 27 15 0 26-11 26-27 0-15-13-26-26-26z m259 16l-181 0c-6 0-11 4-11 10 0 7 5 11 11 11l181 0c6 0 11-4 11-11-2-6-7-10-11-10z m88-16c-16 0-27 11-27 26 0 16 11 27 27 27 15 0 26-11 26-27 0-15-11-26-26-26z m-31-131c0-6 4-10 11-10l57 0c7 0 11 4 11 10l0 42-81 0 0-42z m-376 0c0-6 4-10 11-10l57 0c7 0 11 4 11 10l0 42-79 0z"/>
<glyph glyph-name="cat-salud" unicode="&#57365;" d="M343 171l-48 0 0 36c61 7 109 58 112 122l0 95c0 23-15 42-37 47l0 9c0 7-5 14-14 14-24 0-43-16-43-36 0-21 19-37 43-37 2 0 9 0 13 5 2 3 2 7 2 11 3-3 5-7 5-13l0-93c0-52-42-94-94-94-51 0-93 42-93 94l0 95c0 1 0 2 0 3 3-5 8-8 14-8 23 0 41 15 41 35 0 20-19 37-43 37-9 0-14-6-14-15l0-9c-17-8-29-25-29-45l0-95c0-63 47-115 108-122l0-36-29 0c-7 33-35 57-70 57-41 0-72-31-72-72 0-40 32-71 72-71 34 0 62 23 69 55l30 0 0-48c0-42 34-77 77-77 22 0 42 9 56 24 15 15 22 35 21 55 0 42-34 77-77 77z m-48-31l48 0c27 0 48-22 48-48 0-27-21-48-48-48-26 0-48 21-48 48z m-128-24c-25 0-43 17-43 40 0 23 19 42 43 42 24 0 42-16 42-40 0-23-19-42-42-42z m0 73c-18 0-34-15-34-33 0-18 16-33 34-33 18 0 33 14 33 33 0 18-15 33-33 33z"/>
<glyph glyph-name="cat-renta-autos" unicode="&#57366;" d="M392 279c-2 0-4 0-6-2l-12-4-21 45-8 2c-24 8-61 14-96 14-35 0-68-4-88-14l-9-2-20-47-8 2c-2 0-4 2-6 2-11 0-19-6-23-16-2-7-2-13 2-19 2-6 8-10 14-12l0-2c-4-10-8-23-8-31 0-4 0-14 0-24l0-56c0-6 0-10 2-14 2-6 9-10 17-10l30 0c9 0 15 4 17 10 2 4 2 10 2 14 0 0 0 2 0 4 37-4 59-4 84-4 22 0 45 2 82 4 0-2 0-4 0-4 0-6 0-10 2-14 2-6 8-10 16-10l33 0c8 0 14 4 16 10 2 4 2 10 2 14l0 54c0 10 2 20 2 26 0 10-4 23-8 33l0 2 6 2c13 4 19 16 15 29-10 10-19 18-29 18z m-225 25c20 8 49 12 82 12 35 0 67-4 92-12l16-35c-30-8-67-8-84-8l-14 0c-39 0-78 0-107 6z m-15-187c0-2 0-6 0-8l-30 0c0 2 0 6 0 8l0 10c2 0 4-2 6-2 10 0 18-2 26-2-2-4-2-6-2-6z m232 0c0-2 0-6 0-8l-31 0c0 2 0 6 0 8 0 0 0 2 0 6 8 0 16 2 25 2 2 0 4 0 8 2z m10 131l-24-8 10-20c4-8 6-17 6-25 0-4 0-14-2-22l0-2c0-7 0-11 0-15 0-6-4-12-8-14-62-6-90-8-121-8-31 0-64 2-125 8-2 0-6 6-6 10 0 4-2 10-2 17l0 2c0 8 0 16 0 22 0 6 2 14 6 23l10 20-20 6c-2 0-2 2-4 2 0 2 0 2 0 4 0 2 2 4 6 4l2 0 22-8c29-6 62-6 101-6 4 0 10 0 14 0l14 0c21 0 60 0 93 10l8 2 18 7c2 0 6 0 6-5 0 0-2-2-4-4z m-240-34c-14 0-24-13-24-25 0-14 12-25 24-25 15 0 25 13 25 25 0 12-10 25-25 25z m0-35c-4 0-8 4-8 8 0 4 4 8 8 8 5 0 9-4 9-8 0-4-4-8-9-8z m195 33c-12 0-25-11-25-25 0-14 13-25 25-25 12 0 25 13 25 25 0 14-13 25-25 25z m2-33c-4 0-8 4-8 8 0 4 4 8 8 8 4 0 8-4 8-8 0-4-4-8-8-8z m-43-2l-111 0c-4 0-8-5-8-9 0-4 4-8 8-8l111 0c4 0 8 4 8 8 0 4-4 9-8 9z m0 28l-111 0c-4 0-8-4-8-8 0-4 4-8 8-8l111 0c4 0 8 4 8 8 0 4-4 8-8 8z m193 144l-33 12c-2 2-4 2-6 2l-211 82-2 0-240-96c-8-2-10-10-8-19 2-6 10-10 18-8l17 8 0-246c0-8 6-14 14-14 8 0 14 6 14 14l0 257 185 73 196-75 0-257c0-8 6-14 14-14 9 0 15 6 15 14l0 248 18-6c6-2 17 2 19 8 2 7-2 15-10 17z"/>
<glyph glyph-name="map-bus" unicode="&#57367;" d="M257 512c-234 0-220-81-220-81l0-301c0-25 9-48 20-48 7 0 390 0 396 0 12 0 21 23 21 48l0 301c2 0 16 81-217 81z m-57-29l120 0c4 0 9-5 9-9 0-5-5-9-9-9l-120 0c-5 0-9 4-9 9 0 4 4 9 9 9z m-100-344c-11 0-20 9-20 20 0 12 9 21 20 21 12 0 21-9 21-21 0-11-9-20-21-20z m313 0c-12 0-21 9-21 20 0 12 9 21 21 21 11 0 20-9 20-21 0-11-9-20-20-20z m29 124c0-9-7-16-16-16l-341 0c-9 0-16 7-16 16l0 161c0 9 7 16 16 16l341 0c9 0 16-7 16-16z m-389-253c0-5 4-9 9-9l52 0c4 0 9 4 9 9l0 52-70 0z m332 0c0-5 5-9 9-9l52 0c5 0 9 4 9 9l0 52-72 0 0-52z"/>
<glyph glyph-name="share" unicode="&#57368;" d="M446 161c-34 18-78 11-105-13l-149 86c4 13 4 29 0 43l149 86c27-27 68-34 105-13 43 22 56 77 33 117-22 43-77 57-117 34-37-20-53-61-44-97l-149-87c-34 34-88 34-122 0-34-33-34-88 0-122 34-34 88-34 122 0l149-86c-9-38 7-79 44-98 43-22 95-9 117 34 23 41 7 93-33 116z"/>
<glyph glyph-name="map-plane" unicode="&#57369;" d="M300 437c-4 30-14 55-27 67-4 5-8 7-12 8-1 0-2 0-3 0-2 0-3 0-3 0-4-1-8-4-12-8-13-12-23-38-27-67-4-24-3-52-2-92 0-6 1-13 1-20l-48-26 0 0c0 3-2 6-4 8-2 2-5 4-8 4l-13 0c-3 0-6-2-8-4-3-2-4-5-4-8l0-20-7-3c0 2-1 4-3 6-2 3-5 4-8 4l-13 0c-3 0-7-1-9-4-2-2-3-5-3-8l0-18-49-26c-1-1-2-2-3-3-3-2-4-6-4-9l0-27c0-3 1-6 3-8 3-2 7-3 11-2l122 35c1 0 3 0 4 0l44 0c1-43 4-83 8-116 1-3 1-7 2-9l-67-56c0 0 0 0-1-1-3-3-4-6-4-10l0-13c0-3 1-5 3-7 3-3 7-4 11-3l63 23c1 0 2 0 3 0l7 0c2-4 4-7 7-10 3-3 7-5 11-5l0 0c4 0 7 2 11 5 2 3 4 6 6 10l7 0c1 0 3 0 3 0l63-23c4-1 8-1 11 2 2 2 3 5 3 8l0 13c0 4-1 7-4 10-1 1-1 1-1 1l-67 55c1 3 1 6 1 9 5 34 7 74 8 117l45 0c1 0 3 0 4-1l122-34c4-1 8 0 11 2 2 3 3 5 3 8l0 27c0 3-1 7-4 9-1 1-2 2-3 3l-49 26 0 18c0 3-1 6-3 8-2 2-5 4-8 4l-14 0c-3 0-6-2-8-4-2-2-3-4-3-7l-7 4 0 20c0 3-1 6-3 8-3 2-5 4-8 4l-14 0c-3 0-6-2-8-4-2-2-4-5-4-8l0 0-48 25c1 8 1 15 1 22 2 39 2 67-1 91z"/>
<glyph glyph-name="map-bike" unicode="&#57370;" d="M409 239c13 0 25 11 25 24 0 14-11 25-25 25l-74 0c-10 23-20 45-29 67-5 12-8 17-16 24-2 2-14 13-24 23-10 9-25 8-35-1l-106-114c-8-11-5-27 6-34l107-74 0-71c0-14 11-25 25-25 14-1 25 10 25 24l0 85c0 8-4 16-11 21l-69 47 58 61 30-68c4-9 13-14 22-14l91 0z m-20 206c0-31-25-57-56-57-31 0-57 26-57 57 0 31 26 57 57 57 31 0 56-26 56-57z m18-225c-58 0-104-47-104-105 0-57 46-104 104-104 58 0 104 47 104 104 0 58-46 105-104 105z m0-169c-36 0-64 29-64 64 0 36 28 65 64 65 36 0 65-29 65-65 0-35-29-64-65-64z m-303 169c-57 0-104-47-104-105 0-57 47-104 104-104 58 0 105 47 105 104 0 58-47 105-105 105z m0-169c-35 0-64 29-64 64 0 36 29 65 64 65 36 0 65-29 65-65 0-35-29-64-65-64z"/>
<glyph glyph-name="map-walk" unicode="&#57371;" d="M402 253l-63 36c-4 3-8 9-10 13l-19 66c0 2-1 3-2 4-3 5-8 9-14 9l-83-4c-3 0-7-1-9-3-1-1-1-1-2-1l-56-44c-7-5-10-15-8-23l22-95c2-8 9-14 17-14 1 0 1 0 2 0l8 1c5 0 9 2 11 6 3 3 4 8 3 12l-16 74c-1 4 1 9 4 12l10 7 5-118c0 0 0 0 0 0l-22-50c-3-7-10-16-16-20l-53-38c-9-6-12-19-8-28l8-16c3-6 8-10 15-10 3 0 7 1 10 3l71 53c7 5 16 15 19 23l36 68c0 0 0 1 0 1l3 0 57-158c4-11 15-19 27-19 3 0 6 1 9 1l3 2c7 2 13 7 16 13 3 7 4 14 1 21l-61 167c0 1 0 1-1 2l-1 45 66-35c3-1 5-1 8-1 6 0 12 3 15 8l3 8c5 8 2 18-5 22z m-159 140c1 0 2 0 3 0 16 0 30 7 41 19 11 12 16 27 16 43-2 33-29 58-62 57-16-1-31-8-42-19-11-12-16-27-15-43 1-32 27-57 59-57z"/>
<glyph glyph-name="map-pin" unicode="&#100;" d="M443 326c0 103-83 186-185 186-103 0-186-83-186-186 0-81 53-150 126-175l60-150 60 150c73 25 125 94 125 175z m-185-125c-70 0-126 56-126 125 0 70 56 126 126 126 69 0 126-56 126-126 0-69-57-125-126-125z"/>
<glyph glyph-name="oferta" unicode="&#106;" d="M204 285c18 0 31 14 31 31 0 17-13 31-31 31-17 0-31-14-31-31 0-17 15-31 31-31z m306-22l-26 34 12 42c1 4-1 8-4 10l-35 24-3 42c0 5-3 8-7 9l-42 10-17 40c-2 3-5 5-9 5-1 0-1 0-1 0l-43-4-30 31c-3 3-7 4-11 2l-38-19-39 19c-3 2-8 1-11-2l-29-31-43 4c-5 1-8-2-10-5l-17-39-42-11c-4-1-7-4-7-8l-3-43-36-24c-3-3-5-7-3-11l11-41-25-35c-3-3-3-8 0-11l25-35-12-41c-1-5 1-8 4-11l36-24 3-43c0-4 3-7 7-8l42-11 17-39c2-3 5-6 10-5l43 4 29-31c3-3 8-4 11-2l39 19 38-19c1 0 3-1 4-1 3 0 5 1 7 3l30 31 43-4c4-1 8 2 9 5l18 39 41 11c5 1 7 4 8 8l3 43 35 24c4 3 5 7 4 11l-12 41 25 35c3 3 3 8 1 12z m-98 102l2-3c11-17 19-36 25-55l1-3-19-5-1 3c-5 18-12 34-23 49l-1 3z m-330-184c-11 24-16 49-16 76 0 105 85 190 190 190 53 0 104-23 140-63l2-3-14-13-2 3c-32 36-79 56-126 56-94 0-170-76-170-170 0-23 4-46 14-67l1-3-18-8z m91 14l152 151c2 3 6 3 8 0l9-9c3-3 3-6 0-8l-152-152c-1-2-2-2-4-2 0 0 0 0 0 0-2 0-3 0-5 2l-8 11c-2 2-2 5 0 7z m-17 121c0 26 22 48 48 48 27 0 49-22 49-48 0-27-22-48-49-48-26 0-48 21-48 48z m152-58c27 0 49-21 49-48 0-27-22-48-49-48-26 0-48 21-48 48 0 27 22 48 48 48z m-177-144l-3 2c-14 13-26 27-36 44l-2 2 17 10 2-2c9-15 20-28 32-40l3-2z m312 109c-17-90-95-156-187-156-38 0-74 11-106 32l-2 2 10 16 3-2c28-18 61-29 94-29 83 0 153 59 168 140l1 3 19-3z m-135-44c18 0 31 14 31 31 0 17-14 31-31 31-17 0-31-14-31-31 0-17 15-31 31-31z"/>
<glyph glyph-name="llama-gratis" unicode="&#108;" d="M318 503c-54 0-102-22-137-57l19-19c30 30 71 49 117 49 91 0 166-75 166-166 0-46-19-87-49-117l20-20c36 35 57 83 57 136 0 108-87 194-193 194z m136-193c0 76-61 138-137 138-38 0-73-16-98-41l21-20c19 20 47 32 77 32 60 0 109-49 109-109 0-30-12-58-32-77l20-20c25 25 40 59 40 97z m-77-60c15 15 25 36 25 60 0 47-38 85-85 85-24 0-45-10-60-25l20-21c11 11 25 17 40 17 32 0 57-25 57-56 0-16-7-30-17-40z m50-95c-16 15-41 26-76 35l-1 0c-3 0-5 1-7 1-2 0-4-1-8-1-37-9-46-33-52-51l-1-1 0 0c0-2-1-3-1-5-2-5-4-9-6-11l-4-4-5 0c-9 0-24 6-47 19-64 35-120 92-99 139 3 8 10 10 22 13l0 0c16 5 38 10 44 43 3 20-11 50-20 64-16 26-34 43-50 46-4 1-9 2-14 2-23 0-43-11-61-31-32-38-46-102-40-139 15-87 135-197 216-244 24-14 51-20 80-20 72 0 145 46 150 96 2 12 0 31-20 49z"/>
<glyph glyph-name="superpagina" unicode="&#69;" d="M86 322l251 101c2 1 4 1 6 2-3 48-42 70-91 50l-252-101 0-197c0-49 38-73 86-57 0 2 0 3 0 5z m57-217l0 198 252 101c13 5 26 8 37 7-17 12-42 15-69 4l-251-101 0-197c0-38 23-61 55-62-15 9-24 27-24 50z m277 285l-252-101 0-197c0-50 41-75 92-55l251 102 0 196c0 51-41 75-91 55z"/>
<glyph glyph-name="tel" unicode="&#54;" d="M488 175c-18 16-47 30-87 39l-1 0c-3 1-6 1-8 1-2 0-5 0-9-1-42-10-52-38-60-58l0-1 0 0c-1-2-2-3-2-5-2-6-4-10-7-14l-4-3-6 0c-10 0-28 7-54 21-73 40-136 105-113 159 4 8 12 11 25 15l1 0c18 5 42 11 49 49 5 22-12 57-22 72-18 31-39 50-57 54-5 1-11 2-17 2-25 0-49-13-69-36-37-44-52-116-45-159 16-99 153-225 246-278 27-16 58-24 92-24 81 0 165 54 171 110 2 15-1 36-23 57z"/>
<glyph glyph-name="tienda" unicode="&#40;" d="M179 210l81 81 10-9-82-81z m0-69l155 154 9-9-154-155z m189 371l-224 0c-19 0-33-15-33-33l0-446c0-18 14-32 33-32l224 0c18 0 33 14 33 32l0 446c0 18-15 33-33 33z m-118-30l75 0 0-21-75 0z m-43 0l27 0 0-21-27 0z m42-51l0-58c0-15-12-28-27-28-15 0-28 13-28 28l0 58z m34-397l-71 0 0 17 71 0z m99 62l-252 0 0 235c7-4 15-6 22-6 14 0 26 6 35 16 9-10 21-16 35-16 13 0 25 6 34 16 9-10 22-16 35-16 13 0 25 6 34 16 9-10 22-16 35-16 7 0 15 2 21 6l0-235z m5 277c0-15-12-28-27-28-15 0-28 13-28 28l0 58 55 0 0-58z"/>
<glyph glyph-name="web" unicode="&#44;" d="M507 264c-1 35-9 69-24 100 0 1 0 3-2 4l-3 7c0 1-1 1-1 1l-2 3c0 1 0 1 0 1-8 14-18 27-27 39-48 59-119 93-194 93-138 0-250-115-250-256 0-140 112-255 250-255 69 0 134 28 182 80 15 16 28 33 38 51 1 1 1 1 1 1l7 13c0 0 0 1 0 2 15 31 24 65 25 100 0 0 0 1 0 2l0 12c1 0 1 2 0 2z m-157 59c1-4 2-8 2-12 0-1 0-2 1-3l0-2c0-3 1-6 1-8 0-2 0-3 1-3l0-2c0-3 0-6 1-8 0-1 0-3 1-5l0-1c0-2 0-5 0-7l0-1-84 0 0 82 68 0 1-1c0-1 0-2 1-3 1-3 2-6 2-8l1-2c0-1 1-2 1-3 1-3 2-6 3-10z m-60 119l2-3c4-4 7-8 11-13 0-1 1-1 1-2l1-2c2-3 5-7 7-10 0-1 1-3 2-4l1-2c2-3 3-6 5-9 1-2 2-3 3-5l0-1c2-3 3-5 4-7l-55 0 0 76c2-1 2-2 4-3l1-2c1-1 2-2 3-3 4-3 7-6 10-10z m65-225c0-1 0-2 0-3-1-3-2-6-2-9l0-1c0-1 0-2 0-3-1-4-2-9-3-13l0-2c-1-3-2-7-3-10 0-1 0-2 0-3l-1-3c-1-2-1-5-2-7-1-1-1-2-2-4l0 0-67 0 0 82 84 0 0-1c0-3-1-5-1-7l0-2c0-1 0-3 0-4 0-2-1-5-1-8z m-81-89l54 0c-1-3-2-5-3-8l-1-1c-1-2-2-3-2-5-2-3-4-6-6-9l-1-2c-1-1-1-2-3-3-2-4-4-7-6-11l-2-2c0 0-1-1-1-1-4-5-7-10-10-14l-2-2c-3-4-6-8-9-11-1 0-2-2-3-2l-2-2c-1-1-1-2-3-3l0 76 0 0z m105 205l0 1c-1 4-2 6-3 9 0 2-1 4-2 6 0 1 0 3-1 4l76 0c13-26 19-53 21-82l-82 0c0 1 0 1 0 2 0 3 0 6 0 9l0 2c0 1 0 2 0 3-1 4-1 8-1 12l0 2c-1 5-2 9-3 14 0 1 0 2 0 3l-2 2c0 3-1 6-2 9 0 1-1 2-1 4z m-17 51c-1 1-1 1-1 3l-1 3c-1 2-1 2-2 3-2 6-5 11-8 17-1 1-1 2-2 2l-1 2c-2 5-5 8-7 12-1 1-2 3-2 4l-2 2c-2 3-4 7-6 10-2 2-4 4-5 6-2 3-5 6-7 9-2 2-3 4-5 6-2 2-4 5-7 7 30-7 59-20 83-39 17-13 31-29 43-46l-70 0z m-202-112c0 2 1 5 1 7l0 1c0 1 0 3 0 5 0 2 1 5 1 8l0 1c0 2 0 3 1 3 1 3 1 7 1 10l1 3c0 5 2 9 2 13l1 2c1 4 2 7 3 10 0 1 1 2 1 3l0 2c1 2 2 5 3 8 0 1 0 2 1 3l1 1 66 0 0-82z m32 119l1 1c1 1 2 3 3 4 1 3 3 7 5 10l1 1c1 2 2 2 2 4 3 3 5 7 8 11l1 1c0 0 0 1 1 1 3 4 7 9 10 14 1 0 2 1 2 1l2 2c3 3 6 6 8 9 1 2 2 2 3 3l2 2c1 1 1 2 2 2l0-76-54 0c1 5 2 7 3 10z m18 79c-2-3-4-5-6-8-2-2-4-4-5-6-3-3-5-6-8-9-1-2-3-4-4-6-2-3-4-7-7-10l-1-2c-1-1-2-2-2-4-3-4-5-8-8-12l0-1c0-1-1-2-1-2-3-6-6-12-9-17 0-1 0-2-1-3l-1-3c-1-1-1-2-2-3l-75 0c32 43 78 74 130 86z m-43-282c-1 4-2 9-2 13l-1 4c-1 3-2 6-2 9 0 1 0 2 0 3l0 2c-1 2-1 5-1 8 0 1 0 2-1 4l0 1c0 3-1 5-1 8l0 0 83 0 0-82-66 0 0 1c-1 1-1 2-1 4-1 2-2 5-3 8l0 1c0 1-1 2-1 3-1 4-2 7-2 10z m-25 161c-1-2-1-4-2-6 0-3-2-5-2-9l0-1c-1-1-1-2-2-3 0-4-1-7-1-10l0-2c0 0-1-1-1-2-1-5-2-9-2-14l0-3c-1-3-2-8-2-11 0-1 0-3 0-3l0-2c0-3 0-6 0-9 0-1 0-2 0-2l-91 0c2 28 10 56 23 82l81 0c0-3 0-4-1-5z m-4-170l0-1c1-4 2-6 3-9 0-2 1-4 2-6 0-1 0-3 1-4l-82 0c-13 25-21 54-23 82l90 0c0-1 0-1 0-2 0-3 0-6 0-9l0-2c0-1 0-2 0-3 1-4 1-8 2-12l0-2c0-5 1-9 2-14 0-1 1-2 1-3l0-2c1-3 1-6 2-9 1-2 2-3 2-4z m90-110l-1 2c-1 0-1 1-2 2-4 4-7 9-10 13-1 1-1 1-2 1l-1 2c-2 3-5 7-7 11-1 1-1 1-2 3l-1 2c-2 3-4 6-6 9 0 2-2 3-2 5l-1 1c-1 2-2 5-4 7l54 0 0-75c0 0-1 1-1 1l-2 2c-1 1-2 2-3 3-3 5-6 8-9 11z m-73 59c1-1 1-3 2-4l1-3c1-1 1-2 1-2 3-6 6-11 9-17 1-1 1-1 1-2l1-2c2-4 5-8 7-12 1-1 2-2 3-4l1-1c2-4 4-7 7-10 1-2 3-4 4-6 2-3 5-6 7-9 1-2 3-4 5-5 2-3 4-5 6-8-52 11-99 42-130 86l75 0z m222-55c-21-14-45-25-70-30 2 2 4 4 6 7 2 2 3 4 5 5 2 4 5 7 7 10 1 1 3 3 4 5 3 3 5 7 7 10l1 2c1 1 2 2 3 4 2 4 5 7 7 12l1 1c0 1 1 2 1 2 3 6 6 12 9 17 0 1 0 2 1 2l1 4c1 1 1 2 2 3l70 0c-15-21-34-40-55-54z m-3 86c0 1 1 3 1 4 1 2 1 4 2 5 0 3 2 6 2 9l1 1c0 1 0 3 0 4 1 3 2 7 2 10l1 3c1 5 2 10 2 14l0 3c1 4 2 8 2 12 0 1 0 2 0 3l0 1c0 4 0 7 0 10 0 0 0 1 0 2l84 0c-2-29-9-56-22-82l-75 0z"/>
<glyph glyph-name="papel-web" unicode="&#92;" d="M294 273l65 0c2 0 3 1 3 3l0 65c0 2-1 3-3 3l-65 0c-2 0-3-1-3-3l0-65c0-1 1-3 3-3z m164 18l-43 0c-2 0-3-2-3-4l0-43c0-2 1-3 3-3l38 0c0 0 5 0 5 0 2 0 3 1 3 3l0 43c1 2-1 4-3 4z m-7-75l-28 0c-2 0-3-1-3-3l0-28c0-2 1-4 3-4l28 0c2 0 4 2 4 4l0 28c-1 2-3 3-4 3z m57 68l-18 0c-2 0-3-1-3-3l0-18c0-2 1-3 3-3l18 0c2 0 3 1 3 3l0 18c0 2-2 3-3 3z m-60 14l27 0c2 0 3 1 3 3l0 28c0 2-1 3-3 3l-27 0c-2 0-3-1-3-3l0-28c0-2 1-3 3-3z m52-49l-27 0c-2 0-3-1-3-3l0-27c0-2 1-3 3-3l27 0c2 0 3 1 3 3l0 27c0 2-2 3-3 3z m-98 13l-48 0c-2 0-4-1-4-3l0-49c0-2 2-3 4-3l49 0c2 0 3 1 3 3l0 49c0 2-2 3-4 3z m-71-6l-72 0c-2 0-4-1-4-3l0-72c0-2 2-4 4-4l72 0c2 0 3 2 3 4l0 72c0 2-1 3-3 3z m82 44l0 30c-1 1-3 3-4 3l-29 0c-2 0-4-1-4-3l0-30c0-2 2-3 4-3l29 0c3 0 4 1 4 3z m-144-137c-7 0-18 0-26 0-5 0-9-3-9-7l0-32c0-7-5-12-11-12l-168 0c-6 0-11 5-11 12l0 196c0 3 1 6 3 7l3 3c2 2 5 3 7 3l43 0c6 0 11 6 11 12l0 42c0 3 2 6 4 7l2 3c2 2 5 3 8 3l96 0c7 0 12-5 12-11l0-107c0-6 4-11 10-11 8 0 17 0 24 0 6 0 11 6 11 12l0 151c0 7-5 12-12 12l-158 0c-3 0-6-1-8-3l-97-97c-2-2-3-5-3-8l0-260c0-6 5-11 12-11l256 0c7 0 12 5 12 11l0 74c0 6-5 11-11 11z"/>
<glyph glyph-name="mapa" unicode="&#57347;" d="M465 368l-72 33c-5 33-25 64-54 85-24 17-53 26-83 26-45 0-88-20-113-55-12-16-21-34-24-54l-59 26c-5 2-11 2-15-1-5-3-8-8-8-13l0-336c0-6 4-11 9-14l137-63 7-1 1 1c2 0 4 1 5 2l127 58 127-58c6-2 12-2 16 1 5 3 8 8 8 13l0 336c1 6-3 12-9 14z m-293-326l-102 47 0 301 48-21c0-1 0-1 0-3 4-24 15-47 28-68 8-12 16-25 25-37l0-219z m135 47l-102-46 0 178c17-18 42-43 47-46l4-4 5 4c4 4 29 29 46 46z m-48 241c-2 0-3 0-4 0-3 0-6 1-9 1-1 0-1 1-2 1-1 0-1 0-1 1-1 0-1 0-2 0-1 0-1 0-1 1-1 0-3 0-3 0-6 2-12 6-16 10-3 1-4 3-6 4-3 3-6 6-8 10 0 1-1 2-2 3 0 1-1 2-2 4-3 6-4 14-4 22 0 30 27 55 59 55 23 0 43-11 53-29 1-2 2-4 3-6 1-1 1-2 1-3 1-2 2-5 2-8 0-1 1-1 1-2 0-1 1-2 1-4 0-1 0-2 0-3-1-32-28-57-60-57z m183-288l-102 47 0 172c10 12 18 25 26 38 9 16 22 40 27 67l49-22z"/>
<glyph glyph-name="mail" unicode="&#57372;" d="M504 312c-1 3-3 6-6 9l-59 50 0 52c0 7-2 12-7 16l-66 66c-5 4-11 7-16 7l-263 0c-12 0-22-10-22-22l0-126-52-43c-3-3-5-6-5-9 0 0 0-1 0-2 0 0-1-2-1-3l0-290c0 0 0 0 0-1 0-1 1-4 1-5 2-7 9-11 15-11l464 0c7 0 14 5 16 11 1 2 1 3 1 5 0 1 0 1 0 1l0 291c0-1 0-1 0 0 0 1 0 2 0 3z m-65 15l22-19-22-19z m-79 139l39-40-39 0z m-264-116c0 1 0 2 0 2l0 127 231 0 0-69c0-9 7-16 16-16l63 0 0-120-154-129-156 130z m-31-30l0-24-14 12z m-25-49l131-109-131-109z m30-237l133 111 35-29c4-4 8-6 14-6 5 0 10 2 14 6l38 31 136-113z m400 19l-130 109 130 109z"/>
<glyph glyph-name="check" unicode="&#57373;" d="M197 60l-197 196 79 79 118-118 236 236 78-79z"/>
<glyph glyph-name="sacomtest" unicode="&#79;" d="M256 512c-141 0-256-115-256-256 0-141 115-255 256-255 141 0 255 114 255 255 0 141-114 256-255 256z m0-491c-130 0-236 105-236 235 0 130 106 236 236 236 130 0 235-106 235-236 0-130-105-235-235-235z m-27 180c-52 30-42 56-31 102 11 46 1 106-24 98-18-5-27-17-33-34-7-23-10-30-34-39-11-3-10-11-5-20 9-18 3-26-5-25-2 0-3 0-4-2-2-3-1-8 1-11 1-1 1-2 0-2-5-2-5-5-5-8 0-1 0-2 1-3 9-5 8-8 5-20-2-8-1-23 20-25 61-4 104-27 137-81 0 0 29 40-23 70z m134 25c-28 13-55 21-63 58 18-32 51-35 77-38-14 40-3 79-24 119-24 48-96 60-144 47-5-1-6-5-3-9 11-18 15-38 16-57 10 1 18-7 28-10-8 8-22 11-24 23-2 13 21 24 29 13 8-9 1-21 2-32 5 9 4 23 15 29 11 6 28-12 21-24-7-10-21-7-32-12 11-1 24 5 33-3 10-9-2-31-15-29-12 3-14 16-21 24 3-10 11-19 7-30-6-12-30-8-32 5-1 12 11 18 17 28-10-5-17-16-28-14-1 0-1 0-2 0-3-25-7-47-3-65 14-49 92-42 81-106-7-40 37-51 82-39-32 9-11 24 7 47 29 38 15 57-24 75z"/>
<glyph glyph-name="24h" unicode="&#95;" d="M460 424l-13-120-120 14c-3 0-5 2-6 5-1 3 0 6 2 8l37 29c-12 16-28 30-47 41-51 30-114 30-166 0-51-30-82-84-82-143 0-59 31-114 82-144 30-17 63-24 96-21 12-23 29-42 51-56-60-17-124-10-179 22-71 40-115 116-115 199 0 82 44 158 115 199 71 41 159 41 230 0 26-15 48-34 66-57l37 30c3 2 6 2 9 1 2-2 3-5 3-7z m-239-75l-13-82-77-96c-3-4-3-9 0-12 4-4 9-4 13-1l101 82c0 0 1 1 1 1 6 5 8 13 7 20l-14 88c0 2-1 4-2 5-4 4-10 4-13 0-2-1-3-3-3-5z m154-51c-75 0-136-62-136-137 0-75 61-136 136-136 75 0 136 61 136 136 0 75-61 137-136 137z m0-252c-63 0-115 52-115 115 0 64 52 115 115 115 63 0 115-51 115-115 0-63-51-115-115-115z m-70 175l44 0c7 0 13-4 20-12 3-6 5-12 5-18 0-14-3-23-8-26-6-7-42-15-51-25-2-2-3-4-3-6l62 0 0-27-96 0c0 17-2 36 13 50 5 4 14 10 28 16 11 5 18 8 20 9 1 2 1 4 1 6 0 4-1 7-5 8-4 1-1 1-14 1-4 0-6-2-7-5 0-2 0-5 0-8l-34 0 0 4c0 26 18 33 25 33z m125 0l36 0 0-57 8 0 0-29-8 0 0-28-33 0 0 27-57 0 0 30c1 1 18 20 52 57 1 0 1 0 2 0z m-19-57l22 0 0 25c-12-13-19-21-22-25z"/>
<glyph glyph-name="back" unicode="&#96;" d="M136 221l375 0 0 71-375 0 166 166-50 50-252-252 251-251 51 50z"/>
<glyph glyph-name="buildings" unicode="&#57374;" d="M315 299l0 166-73 0 0 31-170 0 0-31-72 0 0-448 42 0 0 407 231 0 0-407 238 0 0 282z m72-211l-72 0 0 72 72 0z m0 103l-72 0 0 72 72 0z m98-103l-72 0 0 72 72 0z m0 103l-72 0 0 72 72 0z m-412 206l72 0 0-72-72 0z m97 0l72 0 0-72-72 0z m-97-103l72 0 0-72-72 0z m97 0l72 0 0-72-72 0z m-97-103l72 0 0-72-72 0z m97 0l72 0 0-72-72 0z m-68-103l111 0 0-71-111 0z"/>
<glyph glyph-name="gear" unicode="&#57375;" d="M510 285c-1 7-9 12-17 12-23 0-44 14-53 35-9 22-3 48 15 64 5 5 6 13 1 19-12 15-25 29-40 41-6 4-14 4-20-2-15-17-42-23-63-14-22 9-36 31-35 55 0 8-5 14-12 15-19 2-39 2-58 0-7 0-13-7-13-14 1-24-13-46-35-55-20-9-48-2-63 14-5 6-13 6-19 2-15-12-29-26-41-41-5-6-4-14 1-19 18-17 24-42 14-64-8-21-30-35-55-35-8 0-14-5-15-12-2-19-2-39 0-58 1-7 9-13 17-13 22 1 43-13 52-35 9-22 3-47-14-63-6-5-6-13-2-19 12-15 26-29 41-41 6-5 14-4 19 2 16 16 43 23 64 14 22-9 36-32 35-56-1-7 5-14 12-15 10-1 20-1 29-1 10 0 19 0 29 1 7 1 12 8 12 15-1 24 13 46 35 55 21 8 48 2 64-15 5-5 13-6 19-1 15 12 29 26 41 41 5 6 4 14-1 19-18 16-24 42-15 64 9 21 30 35 53 35l3 0c7-1 14 5 15 12 2 19 2 38 0 58z m-254-115c-47 0-85 39-85 86 0 47 38 85 85 85 47 0 85-38 85-85 0-47-38-86-85-86z"/>
<glyph glyph-name="clock" unicode="&#57376;" d="M256 512c-141 0-256-115-256-256 0-140 115-255 256-255 140 0 255 115 255 255 0 141-115 256-255 256z m0-460c-113 0-205 92-205 204 0 113 92 205 205 205 112 0 204-92 204-205 0-112-92-204-204-204z m16 336l-46 0 0-160 108-66 25 41-87 50z"/>
<glyph glyph-name="presencia-web" unicode="&#57377;" d="M256 512c-141 0-256-115-256-256 0-141 115-255 256-255 141 0 255 114 255 255 0 141-114 256-255 256z m0-493c-131 0-238 106-238 237 0 131 107 238 238 238 131 0 237-107 237-238 0-131-106-237-237-237z m66 250c7-11 11-24 12-38l-31 0c-1 8-2 16-4 23-5-3-10-6-14-9 1-4 2-9 2-14l-35 0 0 98 0 0c0 0 0 0 0 0-3 0-5 0-8 0-59 0-106-47-106-106 0-59 47-107 106-107 59 0 107 48 107 107 0 20-6 39-16 56-5-3-9-7-13-10z m-109 39c-5-8-10-16-15-26-5 2-10 4-16 7 9 8 19 14 31 19z m-42-32c7-4 15-7 21-9-3-11-5-23-6-36l-32 0c1 17 8 32 17 45z m0-107c-9 13-15 29-17 46l32 0c1-11 3-24 8-36-7-2-15-6-23-10z m11-12c6 3 12 5 18 7 4-9 9-18 15-27-12 4-23 11-33 20z m54-21c-9 11-15 22-21 33 8 1 15 2 21 3z m0 52c-9-1-18-2-27-5-4 11-6 22-7 32l34 0z m0 43l-34 0c0 11 2 22 5 31 10-2 20-4 29-4l0-27z m0 43c-7 0-15 1-23 3 8 17 17 28 23 35z m16-59l34 0c-1-10-3-20-7-31-8 2-17 3-27 4z m0-79l0 36c8 0 15-1 21-3-5-11-12-22-21-33z m21 1c7 10 12 19 16 28 6-3 12-5 17-8-9-8-20-15-33-20z m44 32c-7 4-14 7-22 10 4 13 6 25 7 36l32 0c-1-17-8-33-17-46z m38 251c-9 4-18 6-28 6-22 0-42-12-53-32-13-26-8-120-8-130 1-3 2-6 5-7 1-1 2-1 3-1 2 0 3 1 5 1 9 6 88 56 101 82 15 30 4 66-25 81z m11-73c-8-17-56-50-84-69-2 34-2 92 7 109 7 14 22 23 38 23 7 0 14-1 21-5 21-11 29-37 18-58z m-25 47c-4 2-9 3-14 3-11 0-21-6-26-17-4-7-5-15-2-22 2-8 7-14 15-18 4-2 9-3 13-3 12 0 22 6 27 16 8 15 2 33-13 41z m-1-34c-3-4-7-7-13-7-2 0-4 0-6 1-3 2-6 5-7 8-1 4-1 8 1 11 2 5 7 8 12 8 3 0 5-1 7-2 7-3 9-12 6-19z"/>
<glyph glyph-name="publicidad-digital" unicode="&#57378;" d="M257 286c-3 1-5 1-8 1-16 0-29-13-29-29 0-16 13-30 29-30 16 0 30 14 30 30 0 3-1 5-1 8l-18-18c-3-3-7-5-11-5-3 0-7 2-10 5-6 5-6 15 0 20z m38 38c-1 2-1 3-1 5-13 8-28 13-45 13-46 0-84-37-84-84 0-46 38-84 84-84 47 0 84 38 84 84 0 17-5 32-13 45-2 0-3 0-4 0 0 0-1 0-2 0l-15-15c6-9 9-19 9-30 0-32-27-59-59-59-32 0-59 27-59 59 0 32 27 59 59 59 11 0 21-3 30-8z m56-12c-1-1-2-2-3-3 8-15 12-32 12-51 0-61-49-111-111-111-61 0-111 50-111 111 0 62 50 111 111 111 19 0 36-4 51-12 1 1 2 2 3 3l16 16c-21 12-44 19-70 19-75 0-136-61-136-137 0-75 61-136 136-136 75 0 137 61 137 136 0 26-7 49-19 70z m22 70c-8 9-4 27-12 19l-49-50c-6-5-6-17-5-25l-63-63c-3-2-3-7 0-10 1-1 3-2 5-2 2 0 4 1 5 2l62 62c9 0 23 3 26 6l49 49c9 8-10 4-18 12z m-117 130c-141 0-256-115-256-256 0-141 115-255 256-255 141 0 255 114 255 255 0 141-114 256-255 256z m0-496c-133 0-241 108-241 240 0 133 108 241 241 241 132 0 240-108 240-241 0-132-108-240-240-240z"/>
<glyph glyph-name="money" unicode="&#57379;" d="M256 512c-141 0-256-115-256-256 0-140 115-255 256-255 140 0 255 115 255 255 0 141-115 256-255 256z m0-460c-113 0-205 92-205 204 0 113 92 205 205 205 112 0 204-92 204-205 0-112-92-204-204-204z m86 181c-3 4-7 8-11 12-5 5-9 8-13 10-3 3-8 6-15 9-6 3-11 6-15 7-4 2-9 4-16 6-7 3-11 5-14 6-4 1-8 3-13 5-5 3-9 5-11 7-2 2-5 4-8 6-3 3-5 6-6 9-1 3-2 6-2 9 0 10 5 17 13 23 8 5 18 8 31 8 6 0 11-1 17-2 6-2 11-3 15-5 4-2 8-4 12-7 3-2 6-4 8-5 1-1 2-2 2-3 2-1 4-2 6-1 2 0 3 1 5 3l16 30c2 2 1 5-1 7-1 1-2 2-3 3-1 1-4 3-8 6-4 3-8 5-13 8-4 2-10 4-17 6-7 3-15 4-23 5l0 36c0 1 0 3-1 4-2 2-3 2-5 2l-27 0c-2 0-4 0-5-2-1-1-2-3-2-4l0-36c-21-5-38-14-51-27-13-14-20-31-20-49 0-6 1-11 2-16 1-5 2-9 4-13 2-4 4-8 7-12 3-4 6-7 9-10 3-2 6-5 11-8 4-3 8-6 11-8 3-1 8-3 13-6 5-2 9-4 12-5 4-1 8-3 13-5 7-3 13-5 16-7 4-2 8-4 13-6 6-3 10-6 12-8 3-2 5-5 7-8 2-4 3-7 3-11 0-11-4-19-12-25-9-5-18-8-29-8-5 0-10 0-15 1-17 4-34 12-49 26l0 0c-1 1-3 2-5 2-2 0-4-1-5-3l-21-27c-2-2-1-5 1-8 0-1 2-2 3-4 2-1 5-4 10-7 4-4 9-7 15-10 5-3 12-6 20-9 8-3 17-5 26-6l0-36c0-1 1-3 2-4 1-1 3-2 4-2l27 0c2 0 4 1 5 2 1 1 2 3 2 5l0 35c21 3 39 13 52 27 13 15 20 33 20 53 0 7-1 14-2 19-3 6-5 11-7 16z"/>
<glyph glyph-name="download" unicode="&#57380;" d="M428 293l-106 0 0 203-132 0 0-203-107 0 173-166z m2-74l0-121-349 0 0 121-81 0 0-203 511 0 0 203z"/>
<glyph glyph-name="e-commerce" unicode="&#57381;" d="M161 184l200 0c20 0 36 16 36 36l0 109c0 20-16 36-36 36l-200 0c-20 0-36-16-36-36l0-109c0-20 16-36 36-36z m-18 145c0 10 8 18 18 18l200 0c10 0 18-8 18-18l0-109c0-10-8-18-18-18l-200 0c-10 0-18 8-18 18z m236-163l-263 0 0-27 290 0 0 27z m-91-18l-54 0 0 7 54 0z m-78 123c2-7 10-12 17-12l54 0c1 0 2 0 3 0l0-1c-2-3-5-5-8-5l-56 0c-3 0-5-2-5-5 0-3 2-5 5-5l4 0c-3-2-4-6-4-9 0-8 6-14 13-14 8 0 14 6 14 14 0 3-2 7-4 9l23 0c-2-2-4-6-4-9 0-8 6-14 14-14 7 0 13 6 13 14 0 5-2 9-6 11 4 2 8 6 9 10l6 16 9 30c0 0 0 1 0 1l5 15c1 3 5 5 8 5l19 0c3 0 5 3 5 5 0 3-2 5-5 5l-19 0c-7 0-15-5-17-12l-1-5c-2 1-4 1-6 1l-88 0c-4 0-8-1-10-4-2-3-2-7-1-11z m24-42c-3 0-5 2-5 5 0 3 2 5 5 5 2 0 4-2 4-5 0-3-2-5-4-5z m42 0c-2 0-4 2-4 5 0 3 2 5 4 5 3 0 5-2 5-5 0-3-2-5-5-5z m-14 40l-17 0-4 16 26 0z m17 37l18 0c1 0 1 0 2 0 0 0 0-1 0-1l-5-15-20 0z m13-21l-1-4c0 0 0 0 0 0l-2-6 0 0c-1-3-4-6-8-6l-12 0 4 16 19 0z m-20 21l-4-16-29 0-4 16z m-33-37l-12 0c-3 0-7 2-8 5l-4 11 19 0z m-32 37c0 0 1 0 1 0l20 0 5-15-20 0-6 14c0 0 0 1 0 1z m49 206c-141 0-256-115-256-256 0-141 115-255 256-255 141 0 255 114 255 255 0 141-114 256-255 256z m0-493c-131 0-238 106-238 237 0 131 107 238 238 238 131 0 237-107 237-238 0-131-106-237-237-237z"/>
<glyph glyph-name="smartphone" unicode="&#57382;" d="M368 512l-224 0c-27 0-48-21-48-48l0-415c0-27 21-48 48-48l224 0c26 0 47 21 47 48l0 415c0 27-21 48-47 48z m-176-24l128 0 0-16-128 0z m64-455c-18 0-32 14-32 31 0 18 14 32 32 32 17 0 32-14 32-32 0-17-15-31-32-31z m128 95l-256 0 0 320 256 0z"/>
<glyph glyph-name="user" unicode="&#57383;" d="M366 385c0 70-49 127-110 127-61 0-111-57-111-127 0-71 50-128 111-128 61 0 110 57 110 128z m98-316c0 1 0 8 0 0z m0 8c-3 123-19 158-148 180 0 0-18-22-60-22-42 0-61 22-61 22-127-22-145-56-147-176 0-9 0-10-1-9 0-2 0-6 0-13 0 0 31-58 208-58 178 0 209 58 209 58 0 5 0 8 0 10 0-1 0 1 0 8z"/>
<glyph glyph-name="belleza" unicode="&#119;" d="M256 512c-141 0-256-115-256-256 0-141 115-255 256-255 141 0 255 114 255 255 0 141-114 256-255 256z m0-491c-130 0-236 105-236 235 0 130 106 236 236 236 130 0 235-106 235-236 0-130-105-235-235-235z m-27 180c-52 30-42 56-31 102 11 46 1 106-24 98-18-5-27-17-33-34-7-23-10-30-34-39-11-3-10-11-5-20 9-18 3-26-5-25-2 0-3 0-4-2-2-3-1-8 1-11 1-1 1-2 0-2-5-2-5-5-5-8 0-1 0-2 1-3 9-5 8-8 5-20-2-8-1-23 20-25 61-4 104-27 137-81 0 0 29 40-23 70z m134 25c-28 13-55 21-63 58 18-32 51-35 77-38-14 40-3 79-24 119-24 48-96 60-144 47-5-1-6-5-3-9 11-18 15-38 16-57 10 1 18-7 28-10-8 8-22 11-24 23-2 13 21 24 29 13 8-9 1-21 2-32 5 9 4 23 15 29 11 6 28-12 21-24-7-10-21-7-32-12 11-1 24 5 33-3 10-9-2-31-15-29-12 3-14 16-21 24 3-10 11-19 7-30-6-12-30-8-32 5-1 12 11 18 17 28-10-5-17-16-28-14-1 0-1 0-2 0-3-25-7-47-3-65 14-49 92-42 81-106-7-40 37-51 82-39-32 9-11 24 7 47 29 38 15 57-24 75z"/>
<glyph glyph-name="quecomer" unicode="&#57384;" d="M256 512c-141 0-256-114-256-256 0-141 115-255 256-255 141 0 255 114 255 255 0 141-114 256-255 256z m0-491c-130 0-236 106-236 236 0 130 106 235 236 235 130 0 236-106 236-236 0-130-106-235-236-235z m20 410c0-10-8-18-18-18-9 0-17 8-17 18 0 9 8 17 17 17 10 0 18-8 18-17z m-175-167l315 0 0-17-315 0z m158 150c-77 0-140-64-140-141l280 0c0 78-63 141-140 141z m48-30c53-17 70-105 70-105l-35 0c0 0 0 70-35 105z m19-164c-13-5-59-18-59-18l-54 7c0 0 32 7 44 8 11 2 8 16 0 17-6 1-64 2-64 2l-39-11 6-64c0 0 9 12 16 12 8-1 76-7 85-6 9 1 69 35 75 40 8 3 4 19-10 13z m-223 1l-6-82 58 6-9 81z"/>
<glyph glyph-name="minegocio" unicode="&#57385;" d="M256 512c-141 0-256-115-256-256 0-141 115-255 256-255 141 0 255 114 255 255 0 141-114 256-255 256z m0-492c-130 0-236 106-236 236 0 130 106 236 236 236 130 0 236-106 236-236 0-130-106-236-236-236z m123 345l-1 1c2 2 3 5 3 9 0 7-6 13-13 13l-224 0c-8 0-14-6-14-13 0-4 1-7 4-9l-1-1c0 0-54-71-54-74 0-15 13-34 33-34 21 0 37 16 41 34l18 55c0 3 3 6 7 6 3 0 7-3 7-6 0-1-13-52-13-55 0-18 17-33 38-33 21 0 38 15 38 33l0 55c0 3 4 7 9 7 4 0 8-3 8-7l0-55c0-18 17-33 38-33 21 0 38 15 38 33 0 3-13 54-13 55 0 3 4 6 7 6 4 0 7-3 7-6l18-55c4-18 20-34 41-34 20 0 33 19 33 34-1 4-55 74-55 74z m-31-175c4 0 6 3 6 7l0 8c-1 4-3 6-6 6l-4 0c-3 0-6-2-6-6l0-8c0-4 3-7 6-7z m49 52l-25 0 0-100-76 0 0 100-40 0 0-79-106 0 0 79-37 0 0-114c0-5 4-8 8-8l269 0c5 0 8 3 8 8l0 114z"/>
<glyph glyph-name="tag" unicode="&#48;" d="M504 268l-259 234c-12 12-146 10-209 9-18 0-33-15-33-33-2-50-4-143-1-191 1-18 17-42 30-54l235-220c16-16 43-16 60 0l161 179c17 17 32 59 16 76z m-383 121c-14-14-37-14-51 0-14 14-14 36 0 51 14 14 37 14 51 0 14-15 14-37 0-51z"/>
<glyph glyph-name="logout" unicode="&#57386;" d="M511 256l-121 121 0-80-214 0 0-81 214 0 0-81z m-430 141l237 0 0 81-318 0 0-444 318 0 0 81-237 0z"/>
<glyph glyph-name="farmacias" unicode="&#57387;" d="M256 512c-141 0-255-114-255-255 0-141 114-255 255-255 140 0 255 114 255 255 0 141-115 255-255 255z m0-495c-133 0-240 108-240 240 0 132 107 240 240 240 132 0 240-108 240-240 0-132-108-240-240-240z m38 325c-19 15-46 14-63-4-18-17-19-44-4-63z m4-71c17 17 19 44 4 63l-67-67c19-15 46-14 63 4z m-167-139c6-18 26-28 44-23l-26 70c-17-8-25-28-18-47z m27 51l26-71c17 9 25 29 18 47-7 18-26 28-44 24z m205 108c15-8 33-4 42 9l-56 32c-6-15 0-33 14-41z m32 57c-14 8-32 4-42-9l57-32c6 15 0 33-15 41z m-222 20c-6 20-27 31-46 25l-5-1c-19-6-31-27-25-46l33-109c6-19 27-30 47-24l4 1c19 6 31 27 25 46z m-51-74l-16 54c-5 15 4 31 19 36l4 1c15 4 31-4 36-19l16-54z m272-57c-9 18-32 25-50 15l-100-52c-18-9-26-32-16-50l2-4c10-18 32-26 50-16l101 52c18 10 25 32 15 51z m-17-47l-51-26-28 54 50 27c14 7 31 1 39-12l2-5c7-13 2-31-12-38z"/>
<glyph glyph-name="florerias" unicode="&#57388;" d="M256 511c-141 0-255-115-255-255 0-141 114-255 255-255 140 0 255 114 255 255 0 140-115 255-255 255z m0-495c-133 0-240 107-240 240 0 132 107 240 240 240 132 0 240-108 240-240 0-133-108-240-240-240z m62 151c-1 18-11 32-20 43-9 12-16 21-16 32 0 13 3 21 5 25 4 2 7 5 7 10 0 6-6 10-12 10l-24 0 0 20c6-4 12-6 18-4 8 4 11 14 10 24 11-1 21 2 24 10 3 8-1 18-10 24 9 7 14 17 10 25-3 8-13 11-24 10 2 10-2 20-10 24-8 3-17-1-24-10-6 9-16 13-24 10-8-3-12-13-10-24-11 2-21-2-24-10-4-8 1-18 10-24-9-6-14-16-10-24 3-8 13-12 24-10-2-11 1-21 9-25 6-2 13 0 18 4l0-20-24 0c-5 0-11-4-11-10 0-5 3-9 7-10 2-4 5-12 5-25 0-11-7-21-16-32-9-12-19-25-20-44 0-1 0-3 0-5-1-19 6-33 17-41 3-2 5-3 8-5l82 0c2 2 5 3 7 5 12 8 18 22 18 41 0 2 0 4 0 6z m-75 172c-13 5-18 20-13 32 5 13 19 18 32 13 12-5 18-19 13-32-6-12-20-18-32-13z m16-143l0 71-14 0 0-71-33 0c1 2 3 4 4 6 9 11 19 23 19 40 0 16-3 26-7 32l7 0 0 1 35 0 0-1 6 0c-4-6-8-16-7-32 0-17 10-29 18-40 2-2 3-4 5-6z"/>
<glyph glyph-name="medicos" unicode="&#57389;" d="M256 511c-141 0-255-115-255-255 0-141 114-255 255-255 140 0 255 114 255 255 0 140-115 255-255 255z m0-495c-133 0-240 107-240 240 0 132 107 240 240 240 132 0 240-108 240-240 0-133-108-240-240-240z m-49 272c10-33 22-46 45-47l0-1c0 0 2 0 2 0 1 0 1 0 1 0 0 0 0 0 0 0 0 0 1 0 1 0 0 0 0 0 0 0l3 0 0 1c23 1 35 14 45 47 6 1 12 9 14 20 2 13 0 21-5 24 0 0 0 0 0 0 4 2 12 28 2 47-10 20-60 36-83 21-10-7-10-5-17-8-12-5-20-34-16-53-1-2-1-5-1-7-6-3-8-11-5-24 1-11 7-19 14-20z m-5 39c5-13 5-16 5-16l5 0c0 1 2 15 2 31 0 16 6 28 14 34 0 0 0-20 31-17 31 4 43 1 42-21 0-22 2-26 2-26l5 0c0 0 0 9 2 15 3-2 4-8 2-18-1-10-7-16-10-16l-2 0-1-2c-11-37-24-45-43-45l-1 0c0 0-1 0-1 0-18 0-31 8-42 45l-1 2-2 0c-4 0-9 6-11 16-2 11-1 17 4 18z m135-101c0-2 1-5 1-7l0-6c12-2 21-11 25-27 0 0 9-41 9-41l0-1c0-6-2-11-6-16 0-5-4-8-8-8l-5 0c-5 0-9 4-9 8 0 5 4 9 9 9l5 0c1 0 2 0 3-1 1 3 2 5 2 8l-4 17-3 16c0 1-1 2-1 2l-1 6c-2 7-7 19-19 19l-3 0c-12 0-18-11-20-19l-1-5-8-36c0-3 1-6 2-8 2 0 3 1 5 1l5 0c5 0 8-4 8-9 0-5-3-9-8-9l-5 0c-4 0-7 3-8 6-5 6-7 12-7 19l0 1c0 0 0 0 0 0 9 41 9 41 9 41 4 15 12 25 25 26l0 7c0 4-1 8-3 12-8 4-16 8-25 11l-27-100-11 43 2 0 8 20-17 10-1-1 0 1-18-10 8-20 2 0-11-43-26 100c-12-5-23-9-32-14-2-4-3-9-3-13l0-39c10-2 17-11 17-21 0-11-10-21-21-21-12 0-21 10-21 21 0 10 7 19 17 21l0 39c0 2 0 5 0 7-19-11-30-19-31-22l-14-93 266 0-14 93c-1 3-14 14-37 26z"/>
<glyph glyph-name="plomeros" unicode="&#57390;" d="M256 512c-141 0-255-114-255-255 0-141 114-255 255-255 140 0 255 114 255 255 0 141-115 255-255 255z m0-495c-133 0-240 108-240 240 0 132 107 240 240 240 132 0 240-108 240-240 0-132-108-240-240-240z m44 248c0-24-20-44-44-44-22 0-39 15-44 35l-52 0c5-46 41-82 86-86l-8 16 18 25-5-25 17-16c1-3 2-7 2-12 0-10-2-17-7-23-14-18-6-42 13-42 20 0 28 23 14 41-5 7-8 16-8 24 0 10 5 15 8 18 36 13 62 48 62 89l0 70-52 0 0-70z m-78 12l0 23c0 4-3 7-7 7l-59 0c-4 0-7-3-7-7l0-23c0-5 3-8 7-8l59 0c4 0 7 3 7 8z m133 110l-58 0c-4 0-7-4-7-8l0-23c0-4 3-8 7-8l58 0c4 0 8 4 8 8l0 23c0 4-4 8-8 8z"/>
<glyph glyph-name="gruas" unicode="&#57391;" d="M256 512c-141 0-255-114-255-255 0-141 114-255 255-255 140 0 255 114 255 255 0 141-115 255-255 255z m0-495c-133 0-240 108-240 240 0 132 107 240 240 240 132 0 240-108 240-240 0-132-108-240-240-240z m5 318c7 0 12 5 12 12l0 65-24 0 0-65c0-7 5-12 12-12z m62-93c-14-10-26-34-35-56-5-13-19-22-32-20-6 1-11 3-15 7-7 6-10 16-9 26 3 18 15 34 28 46 7 8 15 15 23 22 5 4 9 13 9 20l0 11c0 5 3 11 6 15 5 7 8 16 8 26 0 18-10 34-26 41l0-33c0-2 0-4-1-6 0-1 0-1 0-2 0-10-8-18-18-18-10 0-18 8-18 18 0 1 0 2 0 3 0 1 0 3 0 5l0 33c-16-7-27-23-27-41 0-15 8-29 20-37 7-7 13-18-7-29-32-17-55-37-58-78-3-40 31-89 84-89 48 0 70 43 72 70 2 13 4 31 13 53 4 12-5 21-17 13z"/>
<glyph glyph-name="cerrajerias" unicode="&#57392;" d="M256 511c-141 0-255-115-255-255 0-141 114-255 255-255 140 0 255 114 255 255 0 140-115 255-255 255z m0-495c-133 0-240 107-240 240 0 132 107 240 240 240 132 0 240-108 240-240 0-133-108-240-240-240z m114 360c0 0 0 0 0 0 0 1 0 1 0 1-17 16-37 18-46 20-10 2-33 9-53-11l-30-30c-5-5-10-14-10-32 1-18 1-25-2-29l-1 0c0-1 0-1 0-1l-1-1c-4-4-4-10 0-14l1-2-33-33 0-20-17 0 0-18-18 0 0-17-20 0-20-20-2-42 4-4 126 127c2 2 5 2 7 0 0 0 1 0 1 0 0-1 0-1 1-1 1-2 1-5-1-7l-121-121 21 0 115 114 1-2c5-4 11-4 15 0l1 1c0 1 1 1 1 1l0 0c4 4 11 3 29 2 17 0 26 5 31 10l31 30c20 20 13 44 11 53-2 9-5 30-21 46z m-70-41c0-5-3-6-7-3l-18 18c-4 4-4 11 0 15l9 8c2 3 5 4 7 6 5 2 9-2 9-8l0-36z m18 5c0 8 0 17 0 25 0 8 7 14 15 11 9-3 18-7 24-12l0-1c6-5 10-15 13-23 2-9-3-15-12-15l-24 0c-9 0-16 7-16 15z m54-42c-1-3-3-5-5-8l-9-9c-4-4-10-4-14 0l-18 18c-4 5-3 8 3 8l36 0c6 0 10-5 7-9z"/>
<glyph glyph-name="taxis" unicode="&#57393;" d="M256 511c-141 0-255-114-255-255 0-140 114-255 255-255 140 0 255 115 255 255 0 141-115 255-255 255z m0-495c-133 0-240 108-240 240 0 133 107 240 240 240 132 0 240-107 240-240 0-132-108-240-240-240z m156 249c-24 10-61 19-61 19 0 0-47 25-74 33-4 1-9 2-14 3l-5 9c-2 4-7 7-12 7l-38 0c-4 0-9-4-10-8l-3-8c-15-2-28-5-37-10-23-12-22-24-55-24-7 0-14-6-16-12-4-9-4-17-5-26-1-16-2-32 18-32l14 0c0-16 13-29 29-29 16 0 29 13 30 29l158 0c0-16 13-29 29-29 16 0 29 13 29 29l28 0c7 0 13 5 13 12 0 12-3 31-18 37z m-254-49c0-8-7-14-15-14-8 0-14 6-15 14 0 0 0 0 0 0 0 9 7 15 15 15 8 0 15-6 15-15 0 0 0 0 0 0z m11 75c-13 9 7 16 14 17 14 2 29 4 44 4l4-28-8 0c-12 0-24 1-36 3-6 1-13 1-18 4z m42-52l-12 0 0 12 12 0z m12 12l-12 0 0 11 12 0z m12-12l-12 0 0 12 12 0z m13 12l-13 0 0 11 13 0z m12-12l-12 0 0 12 12 0z m12 12l-12 0 0 11 12 0z m12-12l-12 0 0 12 12 0z m21 45l-62 0-4 28c15-1 27-3 36-5 9-2 21-7 32-12 12-6 11-11-2-11z m70-68c-1-8-7-14-15-14-8 0-15 6-15 14 0 0 0 0 0 0 0 9 7 15 15 15 8 0 15-6 15-15 0 0 0 0 0 0z m18 50c6-2 12-4 17-7 6-2 10-8 12-15-13 2-25 7-29 22z"/>
<glyph glyph-name="arrow-right" unicode="&#57394;" d="M0 420l511-140-511-187 133 169z"/>
<glyph glyph-name="info" unicode="&#57395;" d="M256 1c-141 0-256 114-256 255 0 141 115 256 256 256 141 0 255-115 255-256 0-141-114-255-255-255z m0 494c-132 0-239-107-239-239 0-131 107-238 239-238 131 0 238 107 238 238 0 132-107 239-238 239z m24-143c0-12-9-21-22-21-12 0-21 9-21 21 0 12 9 21 21 21 13 0 22-9 22-21z m-39-243l0 189 35 0 0-189z"/>
<glyph glyph-name="send" unicode="&#57396;" d="M509 491c-3 2-6 3-8 1l-496-230c-3-1-5-4-5-7 0-3 2-6 4-7l141-69c2-1 5-1 8 1l250 204-221-212c-1-2-2-4-2-6l11-139c0-3 2-6 5-7 1 0 2 0 2 0 3 0 5 1 6 2l75 87 92-44c2-1 4-1 6-1 2 1 3 3 4 5l130 414c1 3 0 6-2 8z"/>
<glyph glyph-name="veterinarias" unicode="&#57397;" d="M256 512c-141 0-256-115-256-256 0-141 115-255 256-255 141 0 255 114 255 255 0 141-114 256-255 256z m0-496c-133 0-241 108-241 240 0 133 108 241 241 241 132 0 240-108 240-241 0-132-107-240-240-240z m145 132c-4 4-10 5-15 3l-10-5c0 0-19 53-35 76-12 17-32 50-49 66-5 5-9 9-13 12 0 5-1 9-2 12-1 2-30 67-40 79-2 3-5 6-8 7-2 1-4 1-7 1-14 0-31-17-46-41 5 1 11 2 16 2l3 0c12 17 22 27 28 24 6-3 6-18 1-40-14 4-42 11-62-2-13-8-8-23-20-30-12-6-31-10-35-16-3-6 23-37 33-42 10-6 20-9 31-9l11-1c-13-21-26-33-32-30-5 2-6 11-4 25-4 2-8 4-11 6-1 0-2 1-3 2 0-1 0-3-1-4-3-24 1-39 12-44 2 0 4-1 7-1 2 0 3 0 5 1 8 1 30 7 49 14 0-5-1-10-1-14-1-12-2-9-10-53l-18-7c-2-1-4-3-4-5l-4-8c-2-4 1-9 5-11 1 0 1 0 2 0l33 0c4 0 7 2 8 5l18 48 21-21-10-8c-2-1-2-2-3-4l-3-11c-1-4 1-8 5-9 1 0 1 0 2 0l132 0c8 0 22 13 22 13 6 4 7 12 3 18 0 1-1 1-1 2z m-180 136c9 22 16 45 20 68 7-14 14-30 18-38 1-4 2-7 3-8 2-4 3-18-6-37-8-20-19-28-23-30-1 0-3-1-8-3-8-3-24-9-40-13 15 18 27 39 36 61z"/>
<glyph glyph-name="equipos-escritorio" unicode="&#57398;" d="M225 131l-18 0-12 30-53 0-12-30-20 0c-5 0-11-6-11-12 0-6 6-12 11-12l113 0c6 0 12 6 12 12 2 8-4 12-10 12z m101 270l-314 0c-8 0-12-6-12-14l0-209c0-6 6-12 12-12l314 0c6 0 12 6 12 12l0 210c0 8-4 13-12 13z m-158-223c-4 0-8 4-8 8 0 4 4 8 8 8 4 0 8-4 8-8 2-4-2-8-8-8z m138 28l-274 0 0 168 272 0 0-168z m197 199l-134 0c-4 0-8-3-8-8l0-278c0-4 4-8 8-8l134 0c4 0 8 4 8 8l0 280c-2 4-3 6-8 6z m-67-241c-6 0-10 4-10 10 0 6 4 10 10 10 6 0 10-4 10-10 0-4-4-10-10-10z m48 170l-97 0c-4 0-6 2-6 6 0 4 2 6 6 6l97 0c4 0 6-2 6-6 0-4-2-6-6-6z m0 32l-97 0c-4 0-6 2-6 6 0 4 2 6 6 6l97 0c4 0 6-2 6-6 0-4-2-6-6-6z"/>
<glyph glyph-name="impresiones" unicode="&#57399;" d="M212 138l-155 0 0 234 361 0 0-84c7-4 18-9 23-15l0 179c0 6-5 11-10 11l-387 0c-6 0-11-6-11-11l0-326c0-6 6-11 11-11l191 0c-7 5-18 18-23 23z m-92 300c0 1 0 1 2 1 2 0 2 0 4 0l25-20 2-2c0 0 0-1-2-1l-27-22c0 0-2 0-4 0-2 0-2 2-2 2l0 42z m-56-19l27 20c0 0 2 0 4 0 2 0 2-1 2-1l0-42c0-2 0-2-2-2-2 0-2 0-4 0l-27 22-2 1c0 0 2 2 2 2z m292-140c-84 0-152-97-152-97 0 0 68-96 152-96 83 0 151 96 151 96 0 0-68 97-151 97z m0-177c-44 0-79 35-79 78 0 44 35 79 79 79 43 0 78-35 78-79 0-42-35-78-78-78z m0 113c-4 0-10 0-13-2 2-2 2-5 2-7 0-8-6-15-15-15-2 0-5 0-7 2-2-4-2-7-2-11 0-18 14-32 33-32 18 0 32 14 32 32 0 18-12 33-30 33z"/>
<glyph glyph-name="posicion-anuncio" unicode="&#57400;" d="M496 455c-2 5-6 9-13 9l-455 0c-4 0-6-2-8-4-2-3-5-7-5-9l0-389c0-7 7-13 13-13l455 0c7 0 13 6 13 13l0 389c0 0 0 2 0 4z m-28-376l-423 0 0 277 425 0 0-277z m-405 255l390 0 0-89-390 0z m0-117l390 0 0-26-390 0z m0-45l390 0 0-26-390 0z m0-43l390 0 0-26-390 0z"/>
<glyph glyph-name="promedio-sesion" unicode="&#57401;" d="M372 168c-2 20-6 54-11 54-5 0-9-34-11-54-6-4-11-9-11-18 0-11 9-20 20-20 11 0 20 9 20 20 2 9-2 14-7 18z m52 87l7 12 9-5 11 22-12 5 0 163c0 6-6 11-11 11l-384 0c-6 0-11-6-11-11l0-324c0-6 5-11 11-11l205 0c16-47 59-80 112-80 65 0 118 53 118 118-1 42-22 78-55 100z m-306 183c0 2 0 2 2 2 2 0 2 0 4 0l27-20 2-2c0 0 0-2-2-2l-29-22c0 0-2 0-4 0z m-56-18l27 19c0 0 2 0 4 0 2 0 2-1 2-1l0-42c0 0-2-2-2-2-2 0-2 0-4 0l-27 22-2 2c2 0 2 2 2 2z m-6-279l0 231 359 0 0-70-5 2-11-22 9-5-7-13c-9 4-20 5-31 7l0 18 12 0 0 35-45 0 0-35 9 0 0-18c-11-2-20-4-29-7l-7 14 9 6-9 20-40-20 11-22 9 6 7-13c-33-22-54-58-54-100 0-5 0-9 0-12l-187 0z m305-77c-51 0-91 40-91 91 0 51 40 91 91 91 51 0 90-40 90-91 0-51-41-91-90-91z"/>
</font>
</defs>
</svg>
